<svg width="294" height="71" viewBox="0 0 294 71" fill="none" xmlns="http://www.w3.org/2000/svg">
<path fill-rule="evenodd" clip-rule="evenodd" d="M0 64.5C0 58.1487 5.14873 53 11.5 53H242.5C248.851 53 254 58.1487 254 64.5V70.5H253V64.5C253 58.701 248.299 54 242.5 54H11.5C5.70101 54 1 58.701 1 64.5V70.5H0V64.5Z" fill="#3C3C47"/>
<path fill-rule="evenodd" clip-rule="evenodd" d="M20 41.5C20 32.3873 27.3873 25 36.5 25H257.5C266.613 25 274 32.3873 274 41.5V70.5H273V41.5C273 32.9396 266.06 26 257.5 26H36.5C27.9396 26 21 32.9396 21 41.5V53.5H20V41.5Z" fill="#3C3C47"/>
<path fill-rule="evenodd" clip-rule="evenodd" d="M40 18.5C40 8.28273 48.2827 0 58.5 0H265.5C281.24 0 294 12.7599 294 28.5V70.5H293V28.5C293 13.3122 280.688 1 265.5 1H58.5C48.835 1 41 8.83502 41 18.5H40Z" fill="#3C3C47"/>
<path d="M33.5 18.5C33.5 16.2909 35.2909 14.5 37.5 14.5H256.5C258.709 14.5 260.5 16.2909 260.5 18.5V37.5C260.5 39.7091 258.709 41.5 256.5 41.5H37.5C35.2909 41.5 33.5 39.7091 33.5 37.5V18.5Z" fill="#14141B"/>
<path fill-rule="evenodd" clip-rule="evenodd" d="M256.5 15.5H37.5C35.8431 15.5 34.5 16.8431 34.5 18.5V37.5C34.5 39.1569 35.8431 40.5 37.5 40.5H256.5C258.157 40.5 259.5 39.1569 259.5 37.5V18.5C259.5 16.8431 258.157 15.5 256.5 15.5ZM37.5 14.5C35.2909 14.5 33.5 16.2909 33.5 18.5V37.5C33.5 39.7091 35.2909 41.5 37.5 41.5H256.5C258.709 41.5 260.5 39.7091 260.5 37.5V18.5C260.5 16.2909 258.709 14.5 256.5 14.5H37.5Z" fill="#27272F"/>
<path d="M163.376 28.4319C163.917 28.6466 164.342 28.9732 164.65 29.4119C164.967 29.8412 165.126 30.3312 165.126 30.8819C165.126 31.7499 164.823 32.4312 164.216 32.9259C163.619 33.4112 162.839 33.6539 161.878 33.6539C160.917 33.6539 160.137 33.4112 159.54 32.9259C158.933 32.4312 158.63 31.7499 158.63 30.8819C158.63 30.3312 158.784 29.8412 159.092 29.4119C159.409 28.9732 159.839 28.6466 160.38 28.4319C159.932 28.2079 159.582 27.9046 159.33 27.5219C159.078 27.1299 158.952 26.6866 158.952 26.1919C158.952 25.3519 159.232 24.7032 159.792 24.2459C160.371 23.7792 161.066 23.5459 161.878 23.5459C162.69 23.5459 163.381 23.7792 163.95 24.2459C164.519 24.7032 164.804 25.3519 164.804 26.1919C164.804 26.6866 164.678 27.1299 164.426 27.5219C164.174 27.9046 163.824 28.2079 163.376 28.4319ZM159.694 26.1919C159.694 26.7706 159.895 27.2372 160.296 27.5919C160.707 27.9372 161.234 28.1099 161.878 28.1099C162.522 28.1099 163.045 27.9372 163.446 27.5919C163.857 27.2372 164.062 26.7706 164.062 26.1919C164.062 25.5946 163.861 25.1232 163.46 24.7779C163.059 24.4326 162.531 24.2599 161.878 24.2599C161.225 24.2599 160.697 24.4326 160.296 24.7779C159.895 25.1232 159.694 25.5946 159.694 26.1919ZM159.386 30.8819C159.386 31.5259 159.61 32.0299 160.058 32.3939C160.506 32.7579 161.113 32.9399 161.878 32.9399C162.643 32.9399 163.25 32.7579 163.698 32.3939C164.146 32.0299 164.37 31.5259 164.37 30.8819C164.37 30.2379 164.146 29.7386 163.698 29.3839C163.25 29.0199 162.643 28.8379 161.878 28.8379C161.113 28.8379 160.506 29.0199 160.058 29.3839C159.61 29.7386 159.386 30.2379 159.386 30.8819Z" fill="#8A8AA1"/>
<path d="M153.792 26.346C154.8 26.346 155.654 26.7006 156.354 27.41C157.063 28.11 157.418 28.9733 157.418 30C157.418 31.0266 157.063 31.8946 156.354 32.604C155.654 33.304 154.8 33.654 153.792 33.654C153.129 33.654 152.532 33.5 152 33.192C151.477 32.8746 151.071 32.436 150.782 31.876V33.5H150.082V23.7H150.782V28.124C151.071 27.564 151.477 27.13 152 26.822C152.532 26.5046 153.129 26.346 153.792 26.346ZM151.636 32.114C152.215 32.6926 152.919 32.982 153.75 32.982C154.571 32.982 155.271 32.6926 155.85 32.114C156.429 31.5353 156.718 30.8306 156.718 30C156.718 29.1693 156.429 28.4646 155.85 27.886C155.271 27.3073 154.571 27.018 153.75 27.018C152.919 27.018 152.215 27.3073 151.636 27.886C151.067 28.4553 150.782 29.16 150.782 30C150.782 30.84 151.067 31.5446 151.636 32.114Z" fill="#8A8AA1"/>
<path d="M148.526 26.7659C148.526 27.5032 148.326 28.1566 147.924 28.7259L144.648 33.4999H143.808L146.314 29.8459C145.95 29.9486 145.591 29.9999 145.236 29.9999C144.266 29.9999 143.477 29.7012 142.87 29.1039C142.254 28.5066 141.946 27.7272 141.946 26.7659C141.946 25.8232 142.254 25.0532 142.87 24.4559C143.496 23.8492 144.284 23.5459 145.236 23.5459C146.188 23.5459 146.977 23.8492 147.602 24.4559C148.218 25.0532 148.526 25.8232 148.526 26.7659ZM142.702 26.7659C142.702 27.5219 142.931 28.1286 143.388 28.5859C143.855 29.0526 144.471 29.2859 145.236 29.2859C146.002 29.2859 146.618 29.0526 147.084 28.5859C147.551 28.1192 147.784 27.5126 147.784 26.7659C147.784 26.0286 147.546 25.4266 147.07 24.9599C146.604 24.4932 145.992 24.2599 145.236 24.2599C144.48 24.2599 143.869 24.4932 143.402 24.9599C142.936 25.4266 142.702 26.0286 142.702 26.7659Z" fill="#8A8AA1"/>
<path d="M140.145 30.742H141.405V31.442H140.145V33.5H139.403V31.442H134.125V30.742L137.849 23.7H138.661L134.951 30.742H139.403V27.662H140.145V30.742Z" fill="#8A8AA1"/>
<path d="M132.024 30.742H133.284V31.442H132.024V33.5H131.282V31.442H126.004V30.742L129.728 23.7H130.54L126.83 30.742H131.282V27.662H132.024V30.742Z" fill="#8A8AA1"/>
<path d="M124.217 24.4L121.851 27.774C122.673 27.858 123.349 28.152 123.881 28.656C124.413 29.16 124.679 29.832 124.679 30.672C124.679 31.5866 124.367 32.3146 123.741 32.856C123.116 33.388 122.351 33.654 121.445 33.654C120.708 33.654 120.059 33.4906 119.499 33.164C118.949 32.828 118.557 32.3706 118.323 31.792L118.939 31.428C119.117 31.9133 119.425 32.2866 119.863 32.548C120.302 32.8093 120.829 32.94 121.445 32.94C122.183 32.94 122.78 32.7346 123.237 32.324C123.704 31.904 123.937 31.3533 123.937 30.672C123.937 29.9813 123.699 29.4306 123.223 29.02C122.757 28.6093 122.155 28.404 121.417 28.404V28.39L121.403 28.404H121.207L120.885 27.914L123.363 24.4H118.575V23.7H124.217V24.4Z" fill="#8A8AA1"/>
<path d="M116.178 30.742H117.438V31.442H116.178V33.5H115.436V31.442H110.158V30.742L113.882 23.7H114.694L110.984 30.742H115.436V27.662H116.178V30.742Z" fill="#8A8AA1"/>
<path d="M108.913 33.0099C108.913 33.1872 108.853 33.3365 108.731 33.4579C108.61 33.5792 108.461 33.6399 108.283 33.6399C108.106 33.6399 107.957 33.5792 107.835 33.4579C107.714 33.3365 107.653 33.1872 107.653 33.0099C107.653 32.8325 107.714 32.6832 107.835 32.5619C107.957 32.4405 108.106 32.3799 108.283 32.3799C108.461 32.3799 108.61 32.4405 108.731 32.5619C108.853 32.6832 108.913 32.8325 108.913 33.0099Z" fill="#8A8AA1"/>
<path d="M105.933 33.0099C105.933 33.1872 105.872 33.3365 105.751 33.4579C105.63 33.5792 105.48 33.6399 105.303 33.6399C105.126 33.6399 104.976 33.5792 104.855 33.4579C104.734 33.3365 104.673 33.1872 104.673 33.0099C104.673 32.8325 104.734 32.6832 104.855 32.5619C104.976 32.4405 105.126 32.3799 105.303 32.3799C105.48 32.3799 105.63 32.4405 105.751 32.5619C105.872 32.6832 105.933 32.8325 105.933 33.0099Z" fill="#8A8AA1"/>
<path d="M102.952 33.0099C102.952 33.1872 102.892 33.3365 102.77 33.4579C102.649 33.5792 102.5 33.6399 102.322 33.6399C102.145 33.6399 101.996 33.5792 101.874 33.4579C101.753 33.3365 101.692 33.1872 101.692 33.0099C101.692 32.8325 101.753 32.6832 101.874 32.5619C101.996 32.4405 102.145 32.3799 102.322 32.3799C102.5 32.3799 102.649 32.4405 102.77 32.5619C102.892 32.6832 102.952 32.8325 102.952 33.0099Z" fill="#8A8AA1"/>
<path d="M98.4755 28.4319C99.0168 28.6466 99.4415 28.9732 99.7495 29.4119C100.067 29.8412 100.225 30.3312 100.225 30.8819C100.225 31.7499 99.9222 32.4312 99.3155 32.9259C98.7182 33.4112 97.9388 33.6539 96.9775 33.6539C96.0162 33.6539 95.2368 33.4112 94.6395 32.9259C94.0328 32.4312 93.7295 31.7499 93.7295 30.8819C93.7295 30.3312 93.8835 29.8412 94.1915 29.4119C94.5088 28.9732 94.9382 28.6466 95.4795 28.4319C95.0315 28.2079 94.6815 27.9046 94.4295 27.5219C94.1775 27.1299 94.0515 26.6866 94.0515 26.1919C94.0515 25.3519 94.3315 24.7032 94.8915 24.2459C95.4702 23.7792 96.1655 23.5459 96.9775 23.5459C97.7895 23.5459 98.4802 23.7792 99.0495 24.2459C99.6188 24.7032 99.9035 25.3519 99.9035 26.1919C99.9035 26.6866 99.7775 27.1299 99.5255 27.5219C99.2735 27.9046 98.9235 28.2079 98.4755 28.4319ZM94.7935 26.1919C94.7935 26.7706 94.9942 27.2372 95.3955 27.5919C95.8062 27.9372 96.3335 28.1099 96.9775 28.1099C97.6215 28.1099 98.1442 27.9372 98.5455 27.5919C98.9562 27.2372 99.1615 26.7706 99.1615 26.1919C99.1615 25.5946 98.9608 25.1232 98.5595 24.7779C98.1582 24.4326 97.6308 24.2599 96.9775 24.2599C96.3242 24.2599 95.7968 24.4326 95.3955 24.7779C94.9942 25.1232 94.7935 25.5946 94.7935 26.1919ZM94.4855 30.8819C94.4855 31.5259 94.7095 32.0299 95.1575 32.3939C95.6055 32.7579 96.2122 32.9399 96.9775 32.9399C97.7428 32.9399 98.3495 32.7579 98.7975 32.3939C99.2455 32.0299 99.4695 31.5259 99.4695 30.8819C99.4695 30.2379 99.2455 29.7386 98.7975 29.3839C98.3495 29.0199 97.7428 28.8379 96.9775 28.8379C96.2122 28.8379 95.6055 29.0199 95.1575 29.3839C94.7095 29.7386 94.4855 30.2379 94.4855 30.8819Z" fill="#8A8AA1"/>
<path d="M91.3421 28.0819V26.4999H92.0561V33.4999H91.3421V31.9179C91.0341 32.4593 90.6187 32.8839 90.0961 33.1919C89.5734 33.4999 88.9854 33.6539 88.3321 33.6539C87.3427 33.6539 86.4887 33.3039 85.7701 32.6039C85.0607 31.8946 84.7061 31.0266 84.7061 29.9999C84.7061 28.9733 85.0607 28.1099 85.7701 27.4099C86.4794 26.7006 87.3334 26.3459 88.3321 26.3459C88.9854 26.3459 89.5734 26.4999 90.0961 26.8079C90.6187 27.1159 91.0341 27.5406 91.3421 28.0819ZM86.2741 32.1139C86.8527 32.6926 87.5574 32.9819 88.3881 32.9819C89.2094 32.9819 89.9094 32.6926 90.4881 32.1139C91.0574 31.5446 91.3421 30.8399 91.3421 29.9999C91.3421 29.1599 91.0574 28.4553 90.4881 27.8859C89.9094 27.3073 89.2094 27.0179 88.3881 27.0179C87.5574 27.0179 86.8527 27.3073 86.2741 27.8859C85.7047 28.4553 85.4201 29.1599 85.4201 29.9999C85.4201 30.8399 85.7047 31.5446 86.2741 32.1139Z" fill="#8A8AA1"/>
<path d="M82.3973 32.2819C81.7533 33.1966 80.8527 33.6539 79.6953 33.6539C78.538 33.6539 77.6373 33.1966 76.9933 32.2819C76.3493 31.3766 76.0273 30.1492 76.0273 28.5999C76.0273 27.0506 76.3493 25.8232 76.9933 24.9179C77.6373 24.0032 78.538 23.5459 79.6953 23.5459C80.8527 23.5459 81.7533 24.0032 82.3973 24.9179C83.0413 25.8326 83.3633 27.0599 83.3633 28.5999C83.3633 30.1492 83.0413 31.3766 82.3973 32.2819ZM77.5533 31.8059C78.076 32.5619 78.79 32.9399 79.6953 32.9399C80.6007 32.9399 81.3147 32.5619 81.8373 31.8059C82.3507 31.0406 82.6073 29.9719 82.6073 28.5999C82.6073 27.2186 82.3507 26.1546 81.8373 25.4079C81.324 24.6426 80.61 24.2599 79.6953 24.2599C78.7807 24.2599 78.0667 24.6426 77.5533 25.4079C77.04 26.1546 76.7833 27.2186 76.7833 28.5999C76.7833 29.9719 77.04 31.0406 77.5533 31.8059Z" fill="#8A8AA1"/>
<path d="M71.722 33.6539C70.6674 33.6539 69.79 33.3039 69.09 32.6039C68.39 31.9039 68.04 31.0359 68.04 29.9999C68.04 28.9639 68.39 28.0959 69.09 27.3959C69.79 26.6959 70.6674 26.3459 71.722 26.3459C72.4034 26.3459 73.0194 26.5093 73.57 26.8359C74.1207 27.1533 74.522 27.5873 74.774 28.1379L74.2 28.4739C73.9947 28.0259 73.668 27.6713 73.22 27.4099C72.7814 27.1486 72.282 27.0179 71.722 27.0179C70.8914 27.0179 70.1867 27.3073 69.608 27.8859C69.0387 28.4553 68.754 29.1599 68.754 29.9999C68.754 30.8493 69.0387 31.5586 69.608 32.1279C70.1774 32.6973 70.882 32.9819 71.722 32.9819C72.282 32.9819 72.7814 32.8513 73.22 32.5899C73.668 32.3286 74.0087 31.9739 74.242 31.5259L74.83 31.8759C74.55 32.4173 74.13 32.8513 73.57 33.1779C73.01 33.4953 72.394 33.6539 71.722 33.6539Z" fill="#8A8AA1"/>
<path d="M63.2022 26.346C64.2102 26.346 65.0642 26.7006 65.7642 27.41C66.4735 28.11 66.8282 28.9733 66.8282 30C66.8282 31.0266 66.4735 31.8946 65.7642 32.604C65.0642 33.304 64.2102 33.654 63.2022 33.654C62.5395 33.654 61.9422 33.5 61.4102 33.192C60.8875 32.8746 60.4815 32.436 60.1922 31.876V33.5H59.4922V23.7H60.1922V28.124C60.4815 27.564 60.8875 27.13 61.4102 26.822C61.9422 26.5046 62.5395 26.346 63.2022 26.346ZM61.0462 32.114C61.6249 32.6926 62.3295 32.982 63.1602 32.982C63.9815 32.982 64.6815 32.6926 65.2602 32.114C65.8389 31.5353 66.1282 30.8306 66.1282 30C66.1282 29.1693 65.8389 28.4646 65.2602 27.886C64.6815 27.3073 63.9815 27.018 63.1602 27.018C62.3295 27.018 61.6249 27.3073 61.0462 27.886C60.4769 28.4553 60.1922 29.16 60.1922 30C60.1922 30.84 60.4769 31.5446 61.0462 32.114Z" fill="#8A8AA1"/>
<path d="M55.2946 29.888L58.0806 33.5H57.2266L54.8606 30.448L52.4946 33.5H51.6406L54.4406 29.902L51.8086 26.5H52.6626L54.8606 29.342L57.0726 26.5H57.9126L55.2946 29.888Z" fill="#8A8AA1"/>
<path d="M49.6122 32.2819C48.9682 33.1966 48.0675 33.6539 46.9102 33.6539C45.7529 33.6539 44.8522 33.1966 44.2082 32.2819C43.5642 31.3766 43.2422 30.1492 43.2422 28.5999C43.2422 27.0506 43.5642 25.8232 44.2082 24.9179C44.8522 24.0032 45.7529 23.5459 46.9102 23.5459C48.0675 23.5459 48.9682 24.0032 49.6122 24.9179C50.2562 25.8326 50.5782 27.0599 50.5782 28.5999C50.5782 30.1492 50.2562 31.3766 49.6122 32.2819ZM44.7682 31.8059C45.2909 32.5619 46.0049 32.9399 46.9102 32.9399C47.8155 32.9399 48.5295 32.5619 49.0522 31.8059C49.5655 31.0406 49.8222 29.9719 49.8222 28.5999C49.8222 27.2186 49.5655 26.1546 49.0522 25.4079C48.5389 24.6426 47.8249 24.2599 46.9102 24.2599C45.9955 24.2599 45.2815 24.6426 44.7682 25.4079C44.2549 26.1546 43.9982 27.2186 43.9982 28.5999C43.9982 29.9719 44.2549 31.0406 44.7682 31.8059Z" fill="#8A8AA1"/>
<path d="M176.5 14.5H256.5C258.709 14.5 260.5 16.2909 260.5 18.5V37.5C260.5 39.7091 258.709 41.5 256.5 41.5H176.5V14.5Z" fill="#27272F"/>
<path d="M244.998 26.332C246.043 26.332 246.878 26.7007 247.504 27.438C248.148 28.166 248.47 29.0294 248.47 30.028C248.47 30.0747 248.46 30.2194 248.442 30.462H242.296C242.389 31.162 242.688 31.722 243.192 32.142C243.696 32.562 244.326 32.772 245.082 32.772C246.146 32.772 246.897 32.3754 247.336 31.582L248.148 32.058C247.84 32.562 247.415 32.9587 246.874 33.248C246.342 33.528 245.74 33.668 245.068 33.668C243.966 33.668 243.07 33.3227 242.38 32.632C241.689 31.9414 241.344 31.064 241.344 30C241.344 28.9454 241.684 28.0727 242.366 27.382C243.047 26.682 243.924 26.332 244.998 26.332ZM244.998 27.228C244.27 27.228 243.658 27.4427 243.164 27.872C242.678 28.3014 242.389 28.866 242.296 29.566H247.518C247.415 28.8194 247.13 28.2454 246.664 27.844C246.178 27.4334 245.623 27.228 244.998 27.228Z" fill="white"/>
<path d="M237.358 26.332C238.152 26.332 238.786 26.584 239.262 27.088C239.738 27.592 239.976 28.2734 239.976 29.132V33.5H239.052V29.132C239.052 28.5347 238.898 28.068 238.59 27.732C238.282 27.396 237.867 27.228 237.344 27.228C236.738 27.228 236.262 27.4287 235.916 27.83C235.571 28.2314 235.398 28.8287 235.398 29.622V33.5H234.474V29.132C234.474 28.5254 234.33 28.0587 234.04 27.732C233.751 27.396 233.35 27.228 232.836 27.228C232.248 27.228 231.763 27.4334 231.38 27.844C231.007 28.2547 230.82 28.8474 230.82 29.622V33.5H229.896V26.5H230.82V27.522C231.324 26.7287 232.038 26.332 232.962 26.332C233.98 26.332 234.689 26.7567 235.09 27.606C235.594 26.7567 236.35 26.332 237.358 26.332Z" fill="white"/>
<path d="M227.016 27.872V26.5H227.94V33.5H227.016V32.128C226.372 33.1547 225.43 33.668 224.188 33.668C223.19 33.668 222.336 33.3134 221.626 32.604C220.926 31.8947 220.576 31.0267 220.576 30C220.576 28.9734 220.926 28.1054 221.626 27.396C222.336 26.6867 223.19 26.332 224.188 26.332C225.43 26.332 226.372 26.8454 227.016 27.872ZM222.298 31.974C222.83 32.506 223.484 32.772 224.258 32.772C225.033 32.772 225.686 32.506 226.218 31.974C226.75 31.4234 227.016 30.7654 227.016 30C227.016 29.2254 226.75 28.572 226.218 28.04C225.686 27.4987 225.033 27.228 224.258 27.228C223.484 27.228 222.83 27.4987 222.298 28.04C221.766 28.572 221.5 29.2254 221.5 30C221.5 30.7654 221.766 31.4234 222.298 31.974Z" fill="white"/>
<path d="M217.92 31.68V23.7H218.9V33.5H218.06L212.6 25.52V33.5H211.62V23.7H212.46L217.92 31.68Z" fill="white"/>
<path fill-rule="evenodd" clip-rule="evenodd" d="M187 32.9444C187 30.9493 188.616 29.3333 190.611 29.3333H196.056C198.051 29.3333 199.667 30.9493 199.667 32.9444V34.4999C199.667 34.7761 199.443 34.9999 199.167 34.9999C198.891 34.9999 198.667 34.7761 198.667 34.4999V32.9444C198.667 31.5016 197.498 30.3333 196.056 30.3333H190.611C189.168 30.3333 188 31.5016 188 32.9444V34.4999C188 34.7761 187.776 34.9999 187.5 34.9999C187.224 34.9999 187 34.7761 187 34.4999V32.9444Z" fill="#4200FF"/>
<path fill-rule="evenodd" clip-rule="evenodd" d="M193.334 21C191.892 21 190.723 22.169 190.723 23.6111C190.723 25.0532 191.892 26.2222 193.334 26.2222C194.776 26.2222 195.945 25.0532 195.945 23.6111C195.945 22.169 194.776 21 193.334 21ZM189.723 23.6111C189.723 21.6167 191.339 20 193.334 20C195.328 20 196.945 21.6167 196.945 23.6111C196.945 25.6055 195.328 27.2222 193.334 27.2222C191.339 27.2222 189.723 25.6055 189.723 23.6111Z" fill="#4200FF"/>
<path fill-rule="evenodd" clip-rule="evenodd" d="M204.965 24.8132C205.16 25.0085 205.16 25.325 204.965 25.5203L201.853 28.6314C201.76 28.7252 201.632 28.7779 201.5 28.7779C201.367 28.7779 201.24 28.7252 201.146 28.6314L199.591 27.0759C199.396 26.8806 199.396 26.564 199.591 26.3688C199.786 26.1735 200.103 26.1735 200.298 26.3688L201.5 27.5708L204.257 24.8132C204.453 24.6179 204.769 24.6179 204.965 24.8132Z" fill="#4200FF"/>
</svg>
