<svg width="173" height="173" viewBox="0 0 173 173" fill="none" xmlns="http://www.w3.org/2000/svg">
<circle cx="82.0244" cy="27.7487" r="7.5" transform="rotate(45 82.0244 27.7487)" fill="white"/>
<circle cx="70.7104" cy="109.773" r="13.5" transform="rotate(45 70.7104 109.773)" fill="#4200FF"/>
<circle cx="119.501" cy="121.794" r="3.5" transform="rotate(45 119.501 121.794)" fill="white"/>
<path fill-rule="evenodd" clip-rule="evenodd" d="M88.3886 91.3884L121.389 58.3884L122.096 59.0955L89.0957 92.0955L88.3886 91.3884Z" fill="#3C3C47"/>
<path fill-rule="evenodd" clip-rule="evenodd" d="M22.6279 121.794L121.628 22.7939L122.335 23.501L23.335 122.501L22.6279 121.794Z" fill="#3C3C47"/>
<path fill-rule="evenodd" clip-rule="evenodd" d="M38.1836 72.2965L69.2963 41.1838L70.0034 41.8909L38.8907 73.0036L38.1836 72.2965Z" fill="#3C3C47"/>
<path fill-rule="evenodd" clip-rule="evenodd" d="M95.4596 145.128L107.48 133.108L108.188 133.815L96.1667 145.836L95.4596 145.128Z" fill="#3C3C47"/>
<path fill-rule="evenodd" clip-rule="evenodd" d="M59.3967 154.321L120.915 92.8024L121.622 93.5095L60.1038 155.028L59.3967 154.321Z" fill="#3C3C47"/>
</svg>
