<svg width="98" height="111" viewBox="0 0 98 111" fill="none" xmlns="http://www.w3.org/2000/svg">
<path fill-rule="evenodd" clip-rule="evenodd" d="M18 62L18 18L19 18L19 62L18 62Z" fill="#4200FF"/>
<path d="M13 60.967H24V100.967H13V60.967Z" fill="white"/>
<path fill-rule="evenodd" clip-rule="evenodd" d="M50 101L50 54L51 54L51 101L50 101Z" fill="#4200FF"/>
<rect x="45" y="24" width="11" height="51" fill="white"/>
<path fill-rule="evenodd" clip-rule="evenodd" d="M82 71L82 9L83 9L83 71L82 71Z" fill="#4200FF"/>
<rect x="77" y="19" width="11" height="42" fill="white"/>
<path fill-rule="evenodd" clip-rule="evenodd" d="M7.01204e-08 -1.06815e-05L98 0L98 1L0 0.999989L7.01204e-08 -1.06815e-05Z" fill="#3C3C47"/>
<path fill-rule="evenodd" clip-rule="evenodd" d="M7.01204e-08 110L98 110L98 111L0 111L7.01204e-08 110Z" fill="#3C3C47"/>
</svg>
