<svg width="98" height="131" viewBox="0 0 98 131" fill="none" xmlns="http://www.w3.org/2000/svg">
<path fill-rule="evenodd" clip-rule="evenodd" d="M0.519531 20L97.5195 20L97.5195 21L0.519531 21L0.519531 20Z" fill="#41414E"/>
<path fill-rule="evenodd" clip-rule="evenodd" d="M0.519531 -1.05725e-05L97.5195 0L97.5195 1L0.519531 0.999989L0.519531 -1.05725e-05Z" fill="#2A2A33"/>
<path fill-rule="evenodd" clip-rule="evenodd" d="M0.519531 50L97.5195 50L97.5195 51L0.519531 51L0.519531 50Z" fill="white"/>
<path fill-rule="evenodd" clip-rule="evenodd" d="M0.519531 80L97.5195 80L97.5195 81L0.519531 81L0.519531 80Z" fill="white"/>
<path fill-rule="evenodd" clip-rule="evenodd" d="M0.519531 110L97.5195 110L97.5195 111L0.519531 111L0.519531 110Z" fill="#41414E"/>
<path fill-rule="evenodd" clip-rule="evenodd" d="M0.519531 130L97.5195 130L97.5195 131L0.519531 131L0.519531 130Z" fill="#2A2A33"/>
<path d="M33.028 64.5999C33.844 64.5999 34.52 64.8599 35.056 65.3799C35.584 65.8999 35.848 66.5639 35.848 67.3719C35.848 68.1959 35.584 68.8639 35.056 69.3759C34.536 69.8879 33.86 70.1439 33.028 70.1439C32.196 70.1439 31.52 69.8879 31 69.3759C30.472 68.8639 30.208 68.1959 30.208 67.3719C30.208 66.7399 30.38 66.1799 30.724 65.6919L33.472 61.5999H34.42L32.356 64.6719C32.572 64.6239 32.796 64.5999 33.028 64.5999ZM31.588 68.7879C31.964 69.1479 32.444 69.3279 33.028 69.3279C33.62 69.3279 34.096 69.1479 34.456 68.7879C34.824 68.4279 35.008 67.9559 35.008 67.3719C35.008 66.7879 34.824 66.3159 34.456 65.9559C34.096 65.5959 33.62 65.4159 33.028 65.4159C32.444 65.4159 31.964 65.5959 31.588 65.9559C31.228 66.3159 31.048 66.7879 31.048 67.3719C31.048 67.9559 31.228 68.4279 31.588 68.7879Z" fill="#8A8AA1"/>
<path d="M27.7435 65.6678C28.1755 65.8678 28.5155 66.1478 28.7635 66.5078C29.0115 66.8678 29.1355 67.2718 29.1355 67.7198C29.1355 68.4798 28.8675 69.0758 28.3315 69.5078C27.7875 69.9318 27.1195 70.1438 26.3275 70.1438C25.5355 70.1438 24.8675 69.9318 24.3235 69.5078C23.7875 69.0758 23.5195 68.4798 23.5195 67.7198C23.5195 67.2718 23.6435 66.8678 23.8915 66.5078C24.1395 66.1478 24.4795 65.8678 24.9115 65.6678C24.1675 65.2438 23.7955 64.6158 23.7955 63.7838C23.7955 63.0318 24.0435 62.4558 24.5395 62.0558C25.0515 61.6558 25.6475 61.4558 26.3275 61.4558C27.0155 61.4558 27.6075 61.6558 28.1035 62.0558C28.6075 62.4558 28.8595 63.0318 28.8595 63.7838C28.8595 64.6158 28.4875 65.2438 27.7435 65.6678ZM24.6355 63.7838C24.6355 64.2478 24.7955 64.6158 25.1155 64.8878C25.4435 65.1598 25.8475 65.2958 26.3275 65.2958C26.8075 65.2958 27.2075 65.1598 27.5275 64.8878C27.8555 64.6158 28.0195 64.2478 28.0195 63.7838C28.0195 63.2958 27.8635 62.9238 27.5515 62.6678C27.2395 62.4038 26.8315 62.2718 26.3275 62.2718C25.8235 62.2718 25.4155 62.4038 25.1035 62.6678C24.7915 62.9238 24.6355 63.2958 24.6355 63.7838ZM24.8995 68.9198C25.2515 69.1918 25.7275 69.3278 26.3275 69.3278C26.9275 69.3278 27.4035 69.1918 27.7555 68.9198C28.1155 68.6398 28.2955 68.2398 28.2955 67.7198C28.2955 67.2078 28.1155 66.8118 27.7555 66.5318C27.3875 66.2518 26.9115 66.1118 26.3275 66.1118C25.7435 66.1118 25.2675 66.2518 24.8995 66.5318C24.5395 66.8118 24.3595 67.2078 24.3595 67.7198C24.3595 68.2478 24.5395 68.6478 24.8995 68.9198Z" fill="#8A8AA1"/>
<path d="M21.6589 67.5279H22.7389V68.3199H21.6589V69.9999H20.8189V68.3199H16.3789V67.5279L19.4989 61.5999H20.4229L17.3029 67.5279H20.8189V64.9599H21.6589V67.5279Z" fill="#8A8AA1"/>
<path d="M15.3532 69.4598C15.3532 69.6438 15.2892 69.7998 15.1612 69.9278C15.0332 70.0558 14.8772 70.1198 14.6932 70.1198C14.5092 70.1198 14.3532 70.0558 14.2252 69.9278C14.0972 69.7998 14.0332 69.6438 14.0332 69.4598C14.0332 69.2758 14.0972 69.1198 14.2252 68.9918C14.3532 68.8638 14.5092 68.7998 14.6932 68.7998C14.8772 68.7998 15.0332 68.8638 15.1612 68.9918C15.2892 69.1198 15.3532 69.2758 15.3532 69.4598Z" fill="#8A8AA1"/>
<path d="M12.2378 68.9678C11.6858 69.7518 10.9058 70.1438 9.89777 70.1438C8.89777 70.1438 8.11377 69.7518 7.54577 68.9678C6.99377 68.1758 6.71777 67.1198 6.71777 65.7998C6.71777 64.4718 6.99377 63.4198 7.54577 62.6438C8.11377 61.8518 8.89777 61.4558 9.89777 61.4558C10.9058 61.4558 11.6858 61.8518 12.2378 62.6438C12.7978 63.4198 13.0778 64.4718 13.0778 65.7998C13.0778 67.1278 12.7978 68.1838 12.2378 68.9678ZM8.16977 68.4038C8.59377 69.0198 9.16977 69.3278 9.89777 69.3278C10.6338 69.3278 11.2058 69.0198 11.6138 68.4038C12.0298 67.7958 12.2378 66.9278 12.2378 65.7998C12.2378 64.6718 12.0298 63.8038 11.6138 63.1958C11.2058 62.5798 10.6338 62.2718 9.89777 62.2718C9.16977 62.2718 8.59377 62.5798 8.16977 63.1958C7.76177 63.8118 7.55777 64.6798 7.55777 65.7998C7.55777 66.9198 7.76177 67.7878 8.16977 68.4038Z" fill="#8A8AA1"/>
<path d="M5.64 67.8159C5.64 68.4399 5.428 68.9639 5.004 69.3879C4.588 69.8039 4.04 70.0479 3.36 70.1199V71.1999H2.64V70.1319C1.992 70.0919 1.44 69.9199 0.984 69.6159C0.528 69.3119 0.2 68.9039 0 68.3919L0.72 67.9719C1.016 68.7879 1.656 69.2359 2.64 69.3159V66.0039C1.992 65.7799 1.476 65.5239 1.092 65.2359C0.644 64.8999 0.42 64.3839 0.42 63.6879C0.42 63.0639 0.628 62.5559 1.044 62.1639C1.476 61.7559 2.008 61.5239 2.64 61.4679V60.3999H3.36V61.4799C3.84 61.5359 4.26 61.6959 4.62 61.9599C4.988 62.2239 5.268 62.5799 5.46 63.0279L4.752 63.4239C4.504 62.7919 4.04 62.4199 3.36 62.3079V65.4279C4.032 65.6519 4.556 65.9159 4.932 66.2199C5.404 66.5879 5.64 67.1199 5.64 67.8159ZM1.26 63.6879C1.26 64.0399 1.364 64.3279 1.572 64.5519C1.788 64.7679 2.144 64.9719 2.64 65.1639V62.2959C2.224 62.3439 1.888 62.4919 1.632 62.7399C1.384 62.9879 1.26 63.3039 1.26 63.6879ZM3.36 66.2559V69.3039C3.808 69.2399 4.16 69.0759 4.416 68.8119C4.672 68.5479 4.8 68.2159 4.8 67.8159C4.8 67.4399 4.684 67.1359 4.452 66.9039C4.228 66.6719 3.864 66.4559 3.36 66.2559Z" fill="#8A8AA1"/>
<path d="M40.0785 94.2278C40.0785 94.8598 39.9065 95.4198 39.5625 95.9078L36.8145 99.9998H35.8665L37.9305 96.9278C37.7145 96.9758 37.4905 96.9998 37.2585 96.9998C36.4265 96.9998 35.7505 96.7438 35.2305 96.2318C34.7025 95.7198 34.4385 95.0518 34.4385 94.2278C34.4385 93.4198 34.7025 92.7558 35.2305 92.2358C35.7665 91.7158 36.4425 91.4558 37.2585 91.4558C38.0745 91.4558 38.7505 91.7158 39.2865 92.2358C39.8145 92.7558 40.0785 93.4198 40.0785 94.2278ZM35.8185 92.8118C35.4585 93.1718 35.2785 93.6438 35.2785 94.2278C35.2785 94.8118 35.4585 95.2838 35.8185 95.6438C36.1945 96.0038 36.6745 96.1838 37.2585 96.1838C37.8505 96.1838 38.3265 96.0038 38.6865 95.6438C39.0545 95.2838 39.2385 94.8118 39.2385 94.2278C39.2385 93.6438 39.0545 93.1718 38.6865 92.8118C38.3265 92.4518 37.8505 92.2718 37.2585 92.2718C36.6745 92.2718 36.1945 92.4518 35.8185 92.8118Z" fill="#8A8AA1"/>
<path d="M33.7152 94.2278C33.7152 94.8598 33.5432 95.4198 33.1992 95.9078L30.4512 99.9998H29.5032L31.5672 96.9278C31.3512 96.9758 31.1272 96.9998 30.8952 96.9998C30.0632 96.9998 29.3872 96.7438 28.8672 96.2318C28.3392 95.7198 28.0752 95.0518 28.0752 94.2278C28.0752 93.4198 28.3392 92.7558 28.8672 92.2358C29.4032 91.7158 30.0792 91.4558 30.8952 91.4558C31.7112 91.4558 32.3872 91.7158 32.9232 92.2358C33.4512 92.7558 33.7152 93.4198 33.7152 94.2278ZM29.4552 92.8118C29.0952 93.1718 28.9152 93.6438 28.9152 94.2278C28.9152 94.8118 29.0952 95.2838 29.4552 95.6438C29.8312 96.0038 30.3112 96.1838 30.8952 96.1838C31.4872 96.1838 31.9632 96.0038 32.3232 95.6438C32.6912 95.2838 32.8752 94.8118 32.8752 94.2278C32.8752 93.6438 32.6912 93.1718 32.3232 92.8118C31.9632 92.4518 31.4872 92.2718 30.8952 92.2718C30.3112 92.2718 29.8312 92.4518 29.4552 92.8118Z" fill="#8A8AA1"/>
<path d="M26.2768 98.9678C25.7248 99.7518 24.9448 100.144 23.9368 100.144C22.9368 100.144 22.1528 99.7518 21.5848 98.9678C21.0328 98.1758 20.7568 97.1198 20.7568 95.7998C20.7568 94.4718 21.0328 93.4198 21.5848 92.6438C22.1528 91.8518 22.9368 91.4558 23.9368 91.4558C24.9448 91.4558 25.7248 91.8518 26.2768 92.6438C26.8368 93.4198 27.1168 94.4718 27.1168 95.7998C27.1168 97.1278 26.8368 98.1838 26.2768 98.9678ZM22.2088 98.4038C22.6328 99.0198 23.2088 99.3278 23.9368 99.3278C24.6728 99.3278 25.2448 99.0198 25.6528 98.4038C26.0688 97.7958 26.2768 96.9278 26.2768 95.7998C26.2768 94.6718 26.0688 93.8038 25.6528 93.1958C25.2448 92.5798 24.6728 92.2718 23.9368 92.2718C23.2088 92.2718 22.6328 92.5798 22.2088 93.1958C21.8008 93.8118 21.5968 94.6798 21.5968 95.7998C21.5968 96.9198 21.8008 97.7878 22.2088 98.4038Z" fill="#8A8AA1"/>
<path d="M18.7182 98.9678C18.1662 99.7518 17.3862 100.144 16.3782 100.144C15.3782 100.144 14.5942 99.7518 14.0262 98.9678C13.4742 98.1758 13.1982 97.1198 13.1982 95.7998C13.1982 94.4718 13.4742 93.4198 14.0262 92.6438C14.5942 91.8518 15.3782 91.4558 16.3782 91.4558C17.3862 91.4558 18.1662 91.8518 18.7182 92.6438C19.2782 93.4198 19.5582 94.4718 19.5582 95.7998C19.5582 97.1278 19.2782 98.1838 18.7182 98.9678ZM14.6502 98.4038C15.0742 99.0198 15.6502 99.3278 16.3782 99.3278C17.1142 99.3278 17.6862 99.0198 18.0942 98.4038C18.5102 97.7958 18.7182 96.9278 18.7182 95.7998C18.7182 94.6718 18.5102 93.8038 18.0942 93.1958C17.6862 92.5798 17.1142 92.2718 16.3782 92.2718C15.6502 92.2718 15.0742 92.5798 14.6502 93.1958C14.2422 93.8118 14.0382 94.6798 14.0382 95.7998C14.0382 96.9198 14.2422 97.7878 14.6502 98.4038Z" fill="#8A8AA1"/>
<path d="M12.236 99.4598C12.236 99.6438 12.172 99.7998 12.044 99.9278C11.916 100.056 11.76 100.12 11.576 100.12C11.392 100.12 11.236 100.056 11.108 99.9278C10.98 99.7998 10.916 99.6438 10.916 99.4598C10.916 99.2758 10.98 99.1198 11.108 98.9918C11.236 98.8638 11.392 98.7998 11.576 98.7998C11.76 98.7998 11.916 98.8638 12.044 98.9918C12.172 99.1198 12.236 99.2758 12.236 99.4598Z" fill="#8A8AA1"/>
<path d="M6.29785 92.3679L8.51785 91.5999H9.23785V99.9999H8.39785V92.5239L6.51385 93.0879L6.29785 92.3679Z" fill="#8A8AA1"/>
<path d="M5.64 97.8159C5.64 98.4399 5.428 98.9639 5.004 99.3879C4.588 99.8039 4.04 100.048 3.36 100.12V101.2H2.64V100.132C1.992 100.092 1.44 99.9199 0.984 99.6159C0.528 99.3119 0.2 98.9039 0 98.3919L0.72 97.9719C1.016 98.7879 1.656 99.2359 2.64 99.3159V96.0039C1.992 95.7799 1.476 95.5239 1.092 95.2359C0.644 94.8999 0.42 94.3839 0.42 93.6879C0.42 93.0639 0.628 92.5559 1.044 92.1639C1.476 91.7559 2.008 91.5239 2.64 91.4679V90.3999H3.36V91.4799C3.84 91.5359 4.26 91.6959 4.62 91.9599C4.988 92.2239 5.268 92.5799 5.46 93.0279L4.752 93.4239C4.504 92.7919 4.04 92.4199 3.36 92.3079V95.4279C4.032 95.6519 4.556 95.9159 4.932 96.2199C5.404 96.5879 5.64 97.1199 5.64 97.8159ZM1.26 93.6879C1.26 94.0399 1.364 94.3279 1.572 94.5519C1.788 94.7679 2.144 94.9719 2.64 95.1639V92.2959C2.224 92.3439 1.888 92.4919 1.632 92.7399C1.384 92.9879 1.26 93.3039 1.26 93.6879ZM3.36 96.2559V99.3039C3.808 99.2399 4.16 99.0759 4.416 98.8119C4.672 98.5479 4.8 98.2159 4.8 97.8159C4.8 97.4399 4.684 97.1359 4.452 96.9039C4.228 96.6719 3.864 96.4559 3.36 96.2559Z" fill="#8A8AA1"/>
<path d="M92.5603 34.8801C92.1203 34.8801 91.7569 34.7368 91.4703 34.4501C91.1769 34.1568 91.0303 33.8001 91.0303 33.3801C91.0303 32.9668 91.1769 32.6135 91.4703 32.3201C91.7636 32.0268 92.1269 31.8801 92.5603 31.8801C92.9936 31.8801 93.3569 32.0268 93.6503 32.3201C93.9436 32.6135 94.0903 32.9668 94.0903 33.3801C94.0903 33.8068 93.9469 34.1635 93.6603 34.4501C93.3736 34.7368 93.0069 34.8801 92.5603 34.8801ZM91.6703 33.3801C91.6703 33.6335 91.7536 33.8468 91.9203 34.0201C92.0869 34.1935 92.3003 34.2801 92.5603 34.2801C92.8203 34.2801 93.0336 34.1935 93.2003 34.0201C93.3669 33.8468 93.4503 33.6335 93.4503 33.3801C93.4503 33.1268 93.3669 32.9135 93.2003 32.7401C93.0336 32.5668 92.8203 32.4801 92.5603 32.4801C92.3003 32.4801 92.0869 32.5668 91.9203 32.7401C91.7536 32.9135 91.6703 33.1268 91.6703 33.3801ZM91.8003 38.2901L91.3803 38.0501L96.0703 32.7801L96.5003 33.0201L91.8003 38.2901ZM96.4803 38.6901C96.1936 38.9768 95.8303 39.1201 95.3903 39.1201C94.9503 39.1201 94.5869 38.9768 94.3003 38.6901C94.0069 38.3968 93.8603 38.0401 93.8603 37.6201C93.8603 37.2068 94.0069 36.8535 94.3003 36.5601C94.5936 36.2668 94.9569 36.1201 95.3903 36.1201C95.8236 36.1201 96.1869 36.2668 96.4803 36.5601C96.7736 36.8535 96.9203 37.2068 96.9203 37.6201C96.9203 38.0401 96.7736 38.3968 96.4803 38.6901ZM94.5003 37.6201C94.5003 37.8735 94.5836 38.0868 94.7503 38.2601C94.9169 38.4335 95.1303 38.5201 95.3903 38.5201C95.6503 38.5201 95.8636 38.4335 96.0303 38.2601C96.1969 38.0868 96.2803 37.8735 96.2803 37.6201C96.2803 37.3668 96.1969 37.1535 96.0303 36.9801C95.8636 36.8068 95.6503 36.7201 95.3903 36.7201C95.1303 36.7201 94.9169 36.8068 94.7503 36.9801C94.5836 37.1535 94.5003 37.3668 94.5003 37.6201Z" fill="#4200FF"/>
<path d="M88.0805 34.5002C88.7605 34.5002 89.3238 34.7169 89.7705 35.1502C90.2105 35.5836 90.4305 36.1369 90.4305 36.8102C90.4305 37.4969 90.2105 38.0536 89.7705 38.4802C89.3371 38.9069 88.7738 39.1202 88.0805 39.1202C87.3871 39.1202 86.8238 38.9069 86.3905 38.4802C85.9505 38.0536 85.7305 37.4969 85.7305 36.8102C85.7305 36.2836 85.8738 35.8169 86.1605 35.4102L88.4505 32.0002H89.2405L87.5205 34.5602C87.7005 34.5202 87.8871 34.5002 88.0805 34.5002ZM86.8805 37.9902C87.1938 38.2902 87.5938 38.4402 88.0805 38.4402C88.5738 38.4402 88.9705 38.2902 89.2705 37.9902C89.5771 37.6902 89.7305 37.2969 89.7305 36.8102C89.7305 36.3236 89.5771 35.9302 89.2705 35.6302C88.9705 35.3302 88.5738 35.1802 88.0805 35.1802C87.5938 35.1802 87.1938 35.3302 86.8805 35.6302C86.5805 35.9302 86.4305 36.3236 86.4305 36.8102C86.4305 37.2969 86.5805 37.6902 86.8805 37.9902Z" fill="#4200FF"/>
<path d="M82.1816 32.6402L84.0316 32.0002H84.6316V39.0002H83.9316V32.7702L82.3616 33.2402L82.1816 32.6402Z" fill="#4200FF"/>
<path d="M81.4271 38.5502C81.4271 38.7036 81.3738 38.8336 81.2671 38.9402C81.1605 39.0469 81.0305 39.1002 80.8771 39.1002C80.7238 39.1002 80.5938 39.0469 80.4871 38.9402C80.3805 38.8336 80.3271 38.7036 80.3271 38.5502C80.3271 38.3969 80.3805 38.2669 80.4871 38.1602C80.5938 38.0536 80.7238 38.0002 80.8771 38.0002C81.0305 38.0002 81.1605 38.0536 81.2671 38.1602C81.3738 38.2669 81.4271 38.3969 81.4271 38.5502Z" fill="#4200FF"/>
<path d="M78.5758 36.9402H79.4758V37.6002H78.5758V39.0002H77.8758V37.6002H74.1758V36.9402L76.7758 32.0002H77.5458L74.9458 36.9402H77.8758V34.8002H78.5758V36.9402Z" fill="#4200FF"/>
<path d="M69.9958 34.8202H71.1758C71.8358 34.8202 72.3891 35.0136 72.8358 35.4002C73.2958 35.7802 73.5258 36.3036 73.5258 36.9702C73.5258 37.6302 73.2958 38.1569 72.8358 38.5502C72.3891 38.9302 71.8358 39.1202 71.1758 39.1202C70.6358 39.1202 70.1591 38.9902 69.7458 38.7302C69.3391 38.4636 69.0658 38.0969 68.9258 37.6302L69.5158 37.2902C69.6158 37.6569 69.8124 37.9402 70.1058 38.1402C70.3991 38.3402 70.7558 38.4402 71.1758 38.4402C71.6691 38.4402 72.0658 38.3102 72.3658 38.0502C72.6724 37.7836 72.8258 37.4236 72.8258 36.9702C72.8258 36.5169 72.6724 36.1602 72.3658 35.9002C72.0658 35.6336 71.6691 35.5002 71.1758 35.5002H69.2758L69.5258 32.0002H73.2758V32.6602H70.1458L69.9958 34.8202Z" fill="#4200FF"/>
<path d="M62.0195 33L64.1846 36.75H59.8545L62.0195 33Z" fill="#4200FF"/>
<path d="M92.5603 64.8801C92.1203 64.8801 91.7569 64.7368 91.4703 64.4501C91.1769 64.1568 91.0303 63.8001 91.0303 63.3801C91.0303 62.9668 91.1769 62.6135 91.4703 62.3201C91.7636 62.0268 92.1269 61.8801 92.5603 61.8801C92.9936 61.8801 93.3569 62.0268 93.6503 62.3201C93.9436 62.6135 94.0903 62.9668 94.0903 63.3801C94.0903 63.8068 93.9469 64.1635 93.6603 64.4501C93.3736 64.7368 93.0069 64.8801 92.5603 64.8801ZM91.6703 63.3801C91.6703 63.6335 91.7536 63.8468 91.9203 64.0201C92.0869 64.1935 92.3003 64.2801 92.5603 64.2801C92.8203 64.2801 93.0336 64.1935 93.2003 64.0201C93.3669 63.8468 93.4503 63.6335 93.4503 63.3801C93.4503 63.1268 93.3669 62.9135 93.2003 62.7401C93.0336 62.5668 92.8203 62.4801 92.5603 62.4801C92.3003 62.4801 92.0869 62.5668 91.9203 62.7401C91.7536 62.9135 91.6703 63.1268 91.6703 63.3801ZM91.8003 68.2901L91.3803 68.0501L96.0703 62.7801L96.5003 63.0201L91.8003 68.2901ZM96.4803 68.6901C96.1936 68.9768 95.8303 69.1201 95.3903 69.1201C94.9503 69.1201 94.5869 68.9768 94.3003 68.6901C94.0069 68.3968 93.8603 68.0401 93.8603 67.6201C93.8603 67.2068 94.0069 66.8535 94.3003 66.5601C94.5936 66.2668 94.9569 66.1201 95.3903 66.1201C95.8236 66.1201 96.1869 66.2668 96.4803 66.5601C96.7736 66.8535 96.9203 67.2068 96.9203 67.6201C96.9203 68.0401 96.7736 68.3968 96.4803 68.6901ZM94.5003 67.6201C94.5003 67.8735 94.5836 68.0868 94.7503 68.2601C94.9169 68.4335 95.1303 68.5201 95.3903 68.5201C95.6503 68.5201 95.8636 68.4335 96.0303 68.2601C96.1969 68.0868 96.2803 67.8735 96.2803 67.6201C96.2803 67.3668 96.1969 67.1535 96.0303 66.9801C95.8636 66.8068 95.6503 66.7201 95.3903 66.7201C95.1303 66.7201 94.9169 66.8068 94.7503 66.9801C94.5836 67.1535 94.5003 67.3668 94.5003 67.6201Z" fill="#4200FF"/>
<path d="M88.0805 64.5002C88.7605 64.5002 89.3238 64.7169 89.7705 65.1502C90.2105 65.5836 90.4305 66.1369 90.4305 66.8102C90.4305 67.4969 90.2105 68.0536 89.7705 68.4802C89.3371 68.9069 88.7738 69.1202 88.0805 69.1202C87.3871 69.1202 86.8238 68.9069 86.3905 68.4802C85.9505 68.0536 85.7305 67.4969 85.7305 66.8102C85.7305 66.2836 85.8738 65.8169 86.1605 65.4102L88.4505 62.0002H89.2405L87.5205 64.5602C87.7005 64.5202 87.8871 64.5002 88.0805 64.5002ZM86.8805 67.9902C87.1938 68.2902 87.5938 68.4402 88.0805 68.4402C88.5738 68.4402 88.9705 68.2902 89.2705 67.9902C89.5771 67.6902 89.7305 67.2969 89.7305 66.8102C89.7305 66.3236 89.5771 65.9302 89.2705 65.6302C88.9705 65.3302 88.5738 65.1802 88.0805 65.1802C87.5938 65.1802 87.1938 65.3302 86.8805 65.6302C86.5805 65.9302 86.4305 66.3236 86.4305 66.8102C86.4305 67.2969 86.5805 67.6902 86.8805 67.9902Z" fill="#4200FF"/>
<path d="M82.1816 62.6402L84.0316 62.0002H84.6316V69.0002H83.9316V62.7702L82.3616 63.2402L82.1816 62.6402Z" fill="#4200FF"/>
<path d="M81.4271 68.55C81.4271 68.7033 81.3738 68.8333 81.2671 68.94C81.1605 69.0467 81.0305 69.1 80.8771 69.1C80.7238 69.1 80.5938 69.0467 80.4871 68.94C80.3805 68.8333 80.3271 68.7033 80.3271 68.55C80.3271 68.3967 80.3805 68.2667 80.4871 68.16C80.5938 68.0533 80.7238 68 80.8771 68C81.0305 68 81.1605 68.0533 81.2671 68.16C81.3738 68.2667 81.4271 68.3967 81.4271 68.55Z" fill="#4200FF"/>
<path d="M78.1684 65.3901C78.5284 65.5568 78.8118 65.7901 79.0184 66.0901C79.2251 66.3901 79.3284 66.7268 79.3284 67.1001C79.3284 67.7335 79.1051 68.2301 78.6584 68.5901C78.2051 68.9435 77.6484 69.1201 76.9884 69.1201C76.3284 69.1201 75.7718 68.9435 75.3184 68.5901C74.8718 68.2301 74.6484 67.7335 74.6484 67.1001C74.6484 66.7268 74.7518 66.3901 74.9584 66.0901C75.1651 65.7901 75.4484 65.5568 75.8084 65.3901C75.1884 65.0368 74.8784 64.5135 74.8784 63.8201C74.8784 63.1935 75.0851 62.7135 75.4984 62.3801C75.9251 62.0468 76.4218 61.8801 76.9884 61.8801C77.5618 61.8801 78.0551 62.0468 78.4684 62.3801C78.8884 62.7135 79.0984 63.1935 79.0984 63.8201C79.0984 64.5135 78.7884 65.0368 78.1684 65.3901ZM75.5784 63.8201C75.5784 64.2068 75.7118 64.5135 75.9784 64.7401C76.2518 64.9668 76.5884 65.0801 76.9884 65.0801C77.3884 65.0801 77.7218 64.9668 77.9884 64.7401C78.2618 64.5135 78.3984 64.2068 78.3984 63.8201C78.3984 63.4135 78.2684 63.1035 78.0084 62.8901C77.7484 62.6701 77.4084 62.5601 76.9884 62.5601C76.5684 62.5601 76.2284 62.6701 75.9684 62.8901C75.7084 63.1035 75.5784 63.4135 75.5784 63.8201ZM75.7984 68.1001C76.0918 68.3268 76.4884 68.4401 76.9884 68.4401C77.4884 68.4401 77.8851 68.3268 78.1784 68.1001C78.4784 67.8668 78.6284 67.5335 78.6284 67.1001C78.6284 66.6735 78.4784 66.3435 78.1784 66.1101C77.8718 65.8768 77.4751 65.7601 76.9884 65.7601C76.5018 65.7601 76.1051 65.8768 75.7984 66.1101C75.4984 66.3435 75.3484 66.6735 75.3484 67.1001C75.3484 67.5401 75.4984 67.8735 75.7984 68.1001Z" fill="#4200FF"/>
<path d="M68.0195 63L70.1846 66.75H65.8545L68.0195 63Z" fill="#4200FF"/>
<path d="M92.5603 94.8801C92.1203 94.8801 91.7569 94.7368 91.4703 94.4501C91.1769 94.1568 91.0303 93.8001 91.0303 93.3801C91.0303 92.9668 91.1769 92.6135 91.4703 92.3201C91.7636 92.0268 92.1269 91.8801 92.5603 91.8801C92.9936 91.8801 93.3569 92.0268 93.6503 92.3201C93.9436 92.6135 94.0903 92.9668 94.0903 93.3801C94.0903 93.8068 93.9469 94.1635 93.6603 94.4501C93.3736 94.7368 93.0069 94.8801 92.5603 94.8801ZM91.6703 93.3801C91.6703 93.6335 91.7536 93.8468 91.9203 94.0201C92.0869 94.1935 92.3003 94.2801 92.5603 94.2801C92.8203 94.2801 93.0336 94.1935 93.2003 94.0201C93.3669 93.8468 93.4503 93.6335 93.4503 93.3801C93.4503 93.1268 93.3669 92.9135 93.2003 92.7401C93.0336 92.5668 92.8203 92.4801 92.5603 92.4801C92.3003 92.4801 92.0869 92.5668 91.9203 92.7401C91.7536 92.9135 91.6703 93.1268 91.6703 93.3801ZM91.8003 98.2901L91.3803 98.0501L96.0703 92.7801L96.5003 93.0201L91.8003 98.2901ZM96.4803 98.6901C96.1936 98.9768 95.8303 99.1201 95.3903 99.1201C94.9503 99.1201 94.5869 98.9768 94.3003 98.6901C94.0069 98.3968 93.8603 98.0401 93.8603 97.6201C93.8603 97.2068 94.0069 96.8535 94.3003 96.5601C94.5936 96.2668 94.9569 96.1201 95.3903 96.1201C95.8236 96.1201 96.1869 96.2668 96.4803 96.5601C96.7736 96.8535 96.9203 97.2068 96.9203 97.6201C96.9203 98.0401 96.7736 98.3968 96.4803 98.6901ZM94.5003 97.6201C94.5003 97.8735 94.5836 98.0868 94.7503 98.2601C94.9169 98.4335 95.1303 98.5201 95.3903 98.5201C95.6503 98.5201 95.8636 98.4335 96.0303 98.2601C96.1969 98.0868 96.2803 97.8735 96.2803 97.6201C96.2803 97.3668 96.1969 97.1535 96.0303 96.9801C95.8636 96.8068 95.6503 96.7201 95.3903 96.7201C95.1303 96.7201 94.9169 96.8068 94.7503 96.9801C94.5836 97.1535 94.5003 97.3668 94.5003 97.6201Z" fill="#4200FF"/>
<path d="M89.0669 95.3901C89.4269 95.5568 89.7102 95.7901 89.9169 96.0901C90.1235 96.3901 90.2269 96.7268 90.2269 97.1001C90.2269 97.7335 90.0035 98.2301 89.5569 98.5901C89.1035 98.9435 88.5469 99.1201 87.8869 99.1201C87.2269 99.1201 86.6702 98.9435 86.2169 98.5901C85.7702 98.2301 85.5469 97.7335 85.5469 97.1001C85.5469 96.7268 85.6502 96.3901 85.8569 96.0901C86.0635 95.7901 86.3469 95.5568 86.7069 95.3901C86.0869 95.0368 85.7769 94.5135 85.7769 93.8201C85.7769 93.1935 85.9835 92.7135 86.3969 92.3801C86.8235 92.0468 87.3202 91.8801 87.8869 91.8801C88.4602 91.8801 88.9535 92.0468 89.3669 92.3801C89.7869 92.7135 89.9969 93.1935 89.9969 93.8201C89.9969 94.5135 89.6869 95.0368 89.0669 95.3901ZM86.4769 93.8201C86.4769 94.2068 86.6102 94.5135 86.8769 94.7401C87.1502 94.9668 87.4869 95.0801 87.8869 95.0801C88.2869 95.0801 88.6202 94.9668 88.8869 94.7401C89.1602 94.5135 89.2969 94.2068 89.2969 93.8201C89.2969 93.4135 89.1669 93.1035 88.9069 92.8901C88.6469 92.6701 88.3069 92.5601 87.8869 92.5601C87.4669 92.5601 87.1269 92.6701 86.8669 92.8901C86.6069 93.1035 86.4769 93.4135 86.4769 93.8201ZM86.6969 98.1001C86.9902 98.3268 87.3869 98.4401 87.8869 98.4401C88.3869 98.4401 88.7835 98.3268 89.0769 98.1001C89.3769 97.8668 89.5269 97.5335 89.5269 97.1001C89.5269 96.6735 89.3769 96.3435 89.0769 96.1101C88.7702 95.8768 88.3735 95.7601 87.8869 95.7601C87.4002 95.7601 87.0035 95.8768 86.6969 96.1101C86.3969 96.3435 86.2469 96.6735 86.2469 97.1001C86.2469 97.5401 86.3969 97.8735 86.6969 98.1001Z" fill="#4200FF"/>
<path d="M81.8984 92.6402L83.7484 92.0002H84.3484V99.0002H83.6484V92.7702L82.0784 93.2402L81.8984 92.6402Z" fill="#4200FF"/>
<path d="M81.1439 98.5502C81.1439 98.7036 81.0906 98.8336 80.9839 98.9402C80.8773 99.0469 80.7473 99.1002 80.5939 99.1002C80.4406 99.1002 80.3106 99.0469 80.2039 98.9402C80.0973 98.8336 80.0439 98.7036 80.0439 98.5502C80.0439 98.3969 80.0973 98.2669 80.2039 98.1602C80.3106 98.0536 80.4406 98.0002 80.5939 98.0002C80.7473 98.0002 80.8773 98.0536 80.9839 98.1602C81.0906 98.2669 81.1439 98.3969 81.1439 98.5502Z" fill="#4200FF"/>
<path d="M79.0398 99.0001H74.5898V98.3701L77.1098 95.8301C77.8298 95.1101 78.1898 94.4935 78.1898 93.9801C78.1898 93.5468 78.0532 93.2035 77.7798 92.9501C77.5132 92.6901 77.1798 92.5601 76.7798 92.5601C76.0665 92.5601 75.5432 92.8901 75.2098 93.5501L74.6198 93.2001C74.8332 92.7735 75.1298 92.4468 75.5098 92.2201C75.8898 91.9935 76.3132 91.8801 76.7798 91.8801C77.3398 91.8801 77.8298 92.0701 78.2498 92.4501C78.6765 92.8168 78.8898 93.3268 78.8898 93.9801C78.8898 94.3668 78.7832 94.7468 78.5698 95.1201C78.3565 95.4868 78.0298 95.8901 77.5898 96.3301L75.5898 98.3201H79.0398V99.0001Z" fill="#4200FF"/>
<path d="M68.0195 98L65.8545 94.25L70.1846 94.25L68.0195 98Z" fill="#4200FF"/>
<path d="M39.987 37.5279H41.067V38.3199H39.987V39.9999H39.147V38.3199H34.707V37.5279L37.827 31.5999H38.751L35.631 37.5279H39.147V34.9599H39.987V37.5279Z" fill="#8A8AA1"/>
<path d="M32.3021 35.6678C32.7341 35.8678 33.0741 36.1478 33.3221 36.5078C33.5701 36.8678 33.6941 37.2718 33.6941 37.7198C33.6941 38.4798 33.4261 39.0758 32.8901 39.5078C32.3461 39.9318 31.6781 40.1438 30.8861 40.1438C30.0941 40.1438 29.4261 39.9318 28.8821 39.5078C28.3461 39.0758 28.0781 38.4798 28.0781 37.7198C28.0781 37.2718 28.2021 36.8678 28.4501 36.5078C28.6981 36.1478 29.0381 35.8678 29.4701 35.6678C28.7261 35.2438 28.3541 34.6158 28.3541 33.7838C28.3541 33.0318 28.6021 32.4558 29.0981 32.0558C29.6101 31.6558 30.2061 31.4558 30.8861 31.4558C31.5741 31.4558 32.1661 31.6558 32.6621 32.0558C33.1661 32.4558 33.4181 33.0318 33.4181 33.7838C33.4181 34.6158 33.0461 35.2438 32.3021 35.6678ZM29.1941 33.7838C29.1941 34.2478 29.3541 34.6158 29.6741 34.8878C30.0021 35.1598 30.4061 35.2958 30.8861 35.2958C31.3661 35.2958 31.7661 35.1598 32.0861 34.8878C32.4141 34.6158 32.5781 34.2478 32.5781 33.7838C32.5781 33.2958 32.4221 32.9238 32.1101 32.6678C31.7981 32.4038 31.3901 32.2718 30.8861 32.2718C30.3821 32.2718 29.9741 32.4038 29.6621 32.6678C29.3501 32.9238 29.1941 33.2958 29.1941 33.7838ZM29.4581 38.9198C29.8101 39.1918 30.2861 39.3278 30.8861 39.3278C31.4861 39.3278 31.9621 39.1918 32.3141 38.9198C32.6741 38.6398 32.8541 38.2398 32.8541 37.7198C32.8541 37.2078 32.6741 36.8118 32.3141 36.5318C31.9461 36.2518 31.4701 36.1118 30.8861 36.1118C30.3021 36.1118 29.8261 36.2518 29.4581 36.5318C29.0981 36.8118 28.9181 37.2078 28.9181 37.7198C28.9181 38.2478 29.0981 38.6478 29.4581 38.9198Z" fill="#8A8AA1"/>
<path d="M22.4238 32.3919V31.5999H27.5838V32.3919L24.4158 39.9999H23.5398L26.7078 32.3919H22.4238Z" fill="#8A8AA1"/>
<path d="M20.5482 35.6678C20.9802 35.8678 21.3202 36.1478 21.5682 36.5078C21.8162 36.8678 21.9402 37.2718 21.9402 37.7198C21.9402 38.4798 21.6722 39.0758 21.1362 39.5078C20.5922 39.9318 19.9242 40.1438 19.1322 40.1438C18.3402 40.1438 17.6722 39.9318 17.1282 39.5078C16.5922 39.0758 16.3242 38.4798 16.3242 37.7198C16.3242 37.2718 16.4482 36.8678 16.6962 36.5078C16.9442 36.1478 17.2842 35.8678 17.7162 35.6678C16.9722 35.2438 16.6002 34.6158 16.6002 33.7838C16.6002 33.0318 16.8482 32.4558 17.3442 32.0558C17.8562 31.6558 18.4522 31.4558 19.1322 31.4558C19.8202 31.4558 20.4122 31.6558 20.9082 32.0558C21.4122 32.4558 21.6642 33.0318 21.6642 33.7838C21.6642 34.6158 21.2922 35.2438 20.5482 35.6678ZM17.4402 33.7838C17.4402 34.2478 17.6002 34.6158 17.9202 34.8878C18.2482 35.1598 18.6522 35.2958 19.1322 35.2958C19.6122 35.2958 20.0122 35.1598 20.3322 34.8878C20.6602 34.6158 20.8242 34.2478 20.8242 33.7838C20.8242 33.2958 20.6682 32.9238 20.3562 32.6678C20.0442 32.4038 19.6362 32.2718 19.1322 32.2718C18.6282 32.2718 18.2202 32.4038 17.9082 32.6678C17.5962 32.9238 17.4402 33.2958 17.4402 33.7838ZM17.7042 38.9198C18.0562 39.1918 18.5322 39.3278 19.1322 39.3278C19.7322 39.3278 20.2082 39.1918 20.5602 38.9198C20.9202 38.6398 21.1002 38.2398 21.1002 37.7198C21.1002 37.2078 20.9202 36.8118 20.5602 36.5318C20.1922 36.2518 19.7162 36.1118 19.1322 36.1118C18.5482 36.1118 18.0722 36.2518 17.7042 36.5318C17.3442 36.8118 17.1642 37.2078 17.1642 37.7198C17.1642 38.2478 17.3442 38.6478 17.7042 38.9198Z" fill="#8A8AA1"/>
<path d="M15.1188 39.4598C15.1188 39.6438 15.0548 39.7998 14.9268 39.9278C14.7988 40.0558 14.6428 40.1198 14.4588 40.1198C14.2748 40.1198 14.1188 40.0558 13.9908 39.9278C13.8628 39.7998 13.7988 39.6438 13.7988 39.4598C13.7988 39.2758 13.8628 39.1198 13.9908 38.9918C14.1188 38.8638 14.2748 38.7998 14.4588 38.7998C14.6428 38.7998 14.7988 38.8638 14.9268 38.9918C15.0548 39.1198 15.1188 39.2758 15.1188 39.4598Z" fill="#8A8AA1"/>
<path d="M11.698 37.5279H12.778V38.3199H11.698V39.9999H10.858V38.3199H6.41797V37.5279L9.53797 31.5999H10.462L7.34197 37.5279H10.858V34.9599H11.698V37.5279Z" fill="#8A8AA1"/>
<path d="M5.64 37.8159C5.64 38.4399 5.428 38.9639 5.004 39.3879C4.588 39.8039 4.04 40.0479 3.36 40.1199V41.1999H2.64V40.1319C1.992 40.0919 1.44 39.9199 0.984 39.6159C0.528 39.3119 0.2 38.9039 0 38.3919L0.72 37.9719C1.016 38.7879 1.656 39.2359 2.64 39.3159V36.0039C1.992 35.7799 1.476 35.5239 1.092 35.2359C0.644 34.8999 0.42 34.3839 0.42 33.6879C0.42 33.0639 0.628 32.5559 1.044 32.1639C1.476 31.7559 2.008 31.5239 2.64 31.4679V30.3999H3.36V31.4799C3.84 31.5359 4.26 31.6959 4.62 31.9599C4.988 32.2239 5.268 32.5799 5.46 33.0279L4.752 33.4239C4.504 32.7919 4.04 32.4199 3.36 32.3079V35.4279C4.032 35.6519 4.556 35.9159 4.932 36.2199C5.404 36.5879 5.64 37.1199 5.64 37.8159ZM1.26 33.6879C1.26 34.0399 1.364 34.3279 1.572 34.5519C1.788 34.7679 2.144 34.9719 2.64 35.1639V32.2959C2.224 32.3439 1.888 32.4919 1.632 32.7399C1.384 32.9879 1.26 33.3039 1.26 33.6879ZM3.36 36.2559V39.3039C3.808 39.2399 4.16 39.0759 4.416 38.8119C4.672 38.5479 4.8 38.2159 4.8 37.8159C4.8 37.4399 4.684 37.1359 4.452 36.9039C4.228 36.6719 3.864 36.4559 3.36 36.2559Z" fill="#8A8AA1"/>
</svg>
