<svg width="103" height="148" viewBox="0 0 103 148" fill="none" xmlns="http://www.w3.org/2000/svg">
<path fill-rule="evenodd" clip-rule="evenodd" d="M75.9999 49.7071L26.9999 0.707107L27.707 0L76.707 49L75.9999 49.7071Z" fill="#3C3C47"/>
<path fill-rule="evenodd" clip-rule="evenodd" d="M-7.16589e-05 146.707L97.9999 48.7072L98.707 49.4143L0.707035 147.414L-7.16589e-05 146.707Z" fill="#3C3C47"/>
<path fill-rule="evenodd" clip-rule="evenodd" d="M40.9999 146.707L70.9999 116.707L71.707 117.414L41.707 147.414L40.9999 146.707Z" fill="#3C3C47"/>
<path fill-rule="evenodd" clip-rule="evenodd" d="M102 119.707L73.9999 91.7071L74.707 91L102.707 119L102 119.707Z" fill="#3C3C47"/>
<path fill-rule="evenodd" clip-rule="evenodd" d="M53.9999 71.7071L18.9999 36.7071L19.707 36L54.707 71L53.9999 71.7071Z" fill="#3C3C47"/>
<path d="M24 47.707C24 42.7365 28.0294 38.707 33 38.707H82C86.9706 38.707 91 42.7365 91 47.707V99.707C91 104.678 86.9706 108.707 82 108.707H33C28.0294 108.707 24 104.678 24 99.707V47.707Z" fill="#D9D9D9" fill-opacity="0.1"/>
<path fill-rule="evenodd" clip-rule="evenodd" d="M82 39.707H33C28.5817 39.707 25 43.2888 25 47.707V99.707C25 104.125 28.5817 107.707 33 107.707H82C86.4183 107.707 90 104.125 90 99.707V47.707C90 43.2888 86.4183 39.707 82 39.707ZM33 38.707C28.0294 38.707 24 42.7365 24 47.707V99.707C24 104.678 28.0294 108.707 33 108.707H82C86.9706 108.707 91 104.678 91 99.707V47.707C91 42.7365 86.9706 38.707 82 38.707H33Z" fill="#4200FF"/>
</svg>
