<svg width="110" height="143" viewBox="0 0 110 143" fill="none" xmlns="http://www.w3.org/2000/svg">
<path d="M110 0.338166C106.298 0.115445 102.509 0 98.6522 0C56.8706 0 23 13.5483 23 30.2609C23 38.0112 30.2841 45.0811 42.2634 50.4348C30.2841 55.7885 23 62.8583 23 70.6087C23 78.3079 30.1883 85.3356 42.0269 90.6764C30.1883 95.906 23 102.787 23 110.326C23 126.691 56.8706 139.957 98.6522 139.957C102.509 139.957 106.298 139.843 110 139.625V138.362C106.301 138.582 102.512 138.696 98.6522 138.696C77.878 138.696 59.128 135.395 45.6178 130.104C38.8589 127.457 33.4748 124.336 29.8018 120.934C26.1303 117.535 24.2609 113.949 24.2609 110.326C24.2609 106.704 26.1303 103.118 29.8018 99.7177C33.1027 96.6611 37.7855 93.8308 43.6062 91.3672C57.4007 97.2178 76.9603 100.87 98.6522 100.87C102.509 100.87 106.298 100.754 110 100.531V99.2683C106.301 99.4924 102.512 99.6087 98.6522 99.6087C77.8807 99.6087 59.1338 96.2387 45.6263 90.8357C45.5042 90.7869 45.3826 90.7379 45.2615 90.6888C45.3798 90.6418 45.4986 90.5949 45.6178 90.5482C59.128 85.2568 77.878 81.9565 98.6522 81.9565C102.512 81.9565 106.301 82.0704 110 82.2898V81.0268C106.298 80.8087 102.509 80.6957 98.6522 80.6957C76.963 80.6957 57.4056 84.2705 43.6115 89.9979C37.7937 87.4829 33.1124 84.5932 29.8115 81.4715C26.1403 77.9997 24.2609 74.3284 24.2609 70.6087C24.2609 66.889 26.1403 63.2177 29.8115 59.7459C33.1562 56.5828 37.9182 53.6579 43.8436 51.1196C57.6246 56.9116 77.0844 60.5217 98.6522 60.5217C102.509 60.5217 106.298 60.4063 110 60.1836V58.9204C106.301 59.1445 102.512 59.2609 98.6522 59.2609C77.8807 59.2609 59.1338 55.8909 45.6263 50.4879L45.494 50.4348L45.6263 50.3817C59.1338 44.9787 77.8807 41.6087 98.6522 41.6087C102.512 41.6087 106.301 41.725 110 41.9491V40.686C106.298 40.4633 102.509 40.3478 98.6522 40.3478C77.0844 40.3478 57.6246 43.958 43.8436 49.75C37.9182 47.2117 33.1562 44.2868 29.8115 41.1237C26.1403 37.6519 24.2609 33.9806 24.2609 30.2609C24.2609 26.5411 26.1403 22.8699 29.8115 19.3981C33.4853 15.9237 38.869 12.7368 45.6263 10.0339C59.1338 4.63088 77.8807 1.26087 98.6522 1.26087C102.512 1.26087 106.301 1.37721 110 1.60132V0.338166Z" fill="#3C3C47"/>
<path fill-rule="evenodd" clip-rule="evenodd" d="M1.00001 4.37114e-08L1 143L0 143L6.25073e-06 0L1.00001 4.37114e-08Z" fill="#4200FF"/>
</svg>
