<svg width="145" height="34" viewBox="0 0 145 34" fill="none" xmlns="http://www.w3.org/2000/svg">
<path d="M30.0171 19.0554L38.0494 32.9677H21.9849L30.0171 19.0554Z" fill="white"/>
<path d="M13.7464 18.8027L21.8131 4.77127L19.0584 0L0 33.0102H5.49324L10.8797 23.6931H16.1916L10.7324 33.0102H16.5572L27.3141 14.2993C26.1949 12.3607 24.4482 9.3353 24.4482 9.3353L18.9741 18.8027H13.7464Z" fill="white"/>
<path d="M137.461 27.5783H126.541V5.86096H136.748C138.754 5.86096 140.347 6.33667 141.525 7.2881C142.725 8.23953 143.325 9.57359 143.325 11.2903C143.325 12.3451 143.066 13.2449 142.549 13.9894C142.032 14.734 141.381 15.2718 140.595 15.6027C141.774 15.8509 142.808 16.4921 143.697 17.5263C144.566 18.5397 145 19.8324 145 21.4044C145 23.2452 144.318 24.7344 142.953 25.8719C141.608 27.0095 139.778 27.5783 137.461 27.5783ZM131.008 18.0537V23.7312H136.624C137.74 23.7312 138.609 23.4934 139.23 23.0177C139.85 22.5213 140.16 21.818 140.16 20.908C140.16 19.9979 139.85 19.2947 139.23 18.7983C138.609 18.3019 137.74 18.0537 136.624 18.0537H131.008ZM131.008 9.58393V14.3617H136.034C136.965 14.3617 137.689 14.1549 138.206 13.7413C138.744 13.3276 139.012 12.7485 139.012 12.0039C139.012 11.2386 138.744 10.6491 138.206 10.2355C137.689 9.80111 136.965 9.58393 136.034 9.58393H131.008Z" fill="white"/>
<path d="M120.27 27.5783H102.431V24.4138L113.724 9.86316H102.958V5.86096H119.774V8.99446L108.512 23.5761H120.27V27.5783Z" fill="white"/>
<path d="M79.8459 27.5782H75.1611L84.4686 5.73682H88.75L98.0574 27.5782H93.3106L91.1699 22.5522H81.9866L79.8459 27.5782ZM86.5782 11.3213L83.3827 18.8603H89.7428L86.5782 11.3213Z" fill="white"/>
<path d="M55.1419 27.5783H50.6743V5.86096H55.1419V13.9894H64.9457V5.86096H69.3822V27.5783H64.9457V18.0537H55.1419V27.5783Z" fill="white"/>
</svg>
