<?xml version="1.0" standalone="no"?>
<!DOCTYPE svg PUBLIC "-//W3C//DTD SVG 20010904//EN"
 "http://www.w3.org/TR/2001/REC-SVG-20010904/DTD/svg10.dtd">
<svg version="1.0" xmlns="http://www.w3.org/2000/svg"
 width="300.000000pt" height="300.000000pt" viewBox="0 0 300.000000 300.000000"
 preserveAspectRatio="xMidYMid meet">
<metadata>
Created by potrace 1.14, written by Peter Selinger 2001-2017
</metadata>
<g transform="translate(0.000000,300.000000) scale(0.100000,-0.100000)"
fill="#000000" stroke="none">
<path d="M0 1500 l0 -1500 1500 0 1500 0 0 1500 0 1500 -1500 0 -1500 0 0
-1500z m1637 729 l32 -55 -235 -410 c-130 -225 -238 -415 -241 -421 -4 -10 30
-13 149 -13 l155 0 148 258 c82 141 156 270 166 285 l16 28 86 -150 86 -149
-322 -561 -322 -561 -172 0 c-95 0 -173 2 -173 6 0 3 70 125 156 272 86 147
159 270 161 275 2 4 -67 7 -154 7 l-158 0 -161 -277 -161 -278 -168 -3 -168
-2 15 22 c8 13 266 458 573 991 l558 967 51 -87 c29 -49 66 -113 83 -144z
m766 -1330 c131 -227 236 -413 234 -415 -2 -3 -218 -3 -480 -2 l-476 3 237
412 c130 227 239 413 242 413 3 0 112 -185 243 -411z"/>
</g>
</svg>
