<svg width="141" height="35" viewBox="0 0 141 35" fill="none" xmlns="http://www.w3.org/2000/svg">
<path d="M0.835227 35V0.0909081H6.10227V15.2614H23.5057V0.0909081H28.7898V35H23.5057V19.7784H6.10227V35H0.835227ZM44.2091 35H38.6182L51.1807 0.0909081H57.2659L69.8284 35H64.2375L54.3682 6.43182H54.0955L44.2091 35ZM45.1466 21.3295H63.283V25.7614H45.1466V21.3295ZM78.7662 35V31.4886L97.1241 4.625H78.6128V0.0909081H103.567V3.60227L85.2094 30.4659H103.721V35H78.7662ZM115.126 35V0.0909081H127.91C130.387 0.0909081 132.438 0.499999 134.063 1.31818C135.688 2.125 136.904 3.22159 137.711 4.60795C138.518 5.98295 138.921 7.53409 138.921 9.26136C138.921 10.7159 138.654 11.9432 138.12 12.9432C137.586 13.9318 136.87 14.7273 135.972 15.3295C135.086 15.9205 134.109 16.3523 133.041 16.625V16.9659C134.2 17.0227 135.33 17.3977 136.433 18.0909C137.546 18.7727 138.467 19.7443 139.194 21.0057C139.921 22.267 140.285 23.8011 140.285 25.608C140.285 27.392 139.864 28.9943 139.024 30.4148C138.194 31.8239 136.91 32.9432 135.171 33.7727C133.433 34.5909 131.211 35 128.507 35H115.126ZM120.393 30.483H127.995C130.518 30.483 132.325 29.9943 133.416 29.017C134.507 28.0398 135.052 26.8182 135.052 25.3523C135.052 24.25 134.774 23.2386 134.217 22.3182C133.66 21.3977 132.864 20.6648 131.83 20.1193C130.808 19.5739 129.592 19.3011 128.183 19.3011H120.393V30.483ZM120.393 15.1932H127.45C128.632 15.1932 129.694 14.9659 130.637 14.5114C131.592 14.0568 132.347 13.4205 132.904 12.6023C133.472 11.7727 133.757 10.7955 133.757 9.67045C133.757 8.22727 133.251 7.01705 132.239 6.03977C131.228 5.0625 129.677 4.57386 127.586 4.57386H120.393V15.1932Z" fill="white"/>
</svg>
