<svg width="413" height="119" viewBox="0 0 413 119" fill="none" xmlns="http://www.w3.org/2000/svg">
<path fill-rule="evenodd" clip-rule="evenodd" d="M6.58114 69.853L0 63.2719L57.187 7L98.7045 48.7558H78.0586L57.187 27.1947L27.2271 56.2395H38.3461L52.8747 56.1266V69.853H6.58114Z" fill="#50B8A1"/>
<path fill-rule="evenodd" clip-rule="evenodd" d="M105.937 56.0138L112.518 62.595L55.3438 118.867L13.8137 77.1236H34.4722L55.3438 98.6721L85.2911 69.6274H74.1722L59.656 69.7527V56.0138H105.937Z" fill="#338F7B"/>
<path d="M132.065 95V23.7273H144.976V53.8999H178.002V23.7273H190.948V95H178.002V64.723H144.976V95H132.065ZM219.043 95H205.262L230.354 23.7273H246.293L271.419 95H257.638L238.601 38.3438H238.045L219.043 95ZM219.496 67.0547H257.081V77.4254H219.496V67.0547ZM284.384 95V86.9609L320.925 34.5504H284.175V23.7273H336.934V31.7663L300.427 84.1768H337.143V95H284.384ZM354.536 95V23.7273H381.82C386.971 23.7273 391.251 24.5393 394.662 26.1633C398.096 27.7642 400.659 29.9567 402.353 32.7408C404.07 35.5249 404.928 38.6802 404.928 42.2067C404.928 45.1068 404.371 47.5893 403.258 49.6541C402.144 51.6958 400.648 53.3546 398.768 54.6307C396.889 55.9067 394.79 56.8232 392.469 57.38V58.076C394.998 58.2152 397.423 58.9924 399.743 60.4077C402.086 61.7997 404 63.7718 405.485 66.3239C406.97 68.8759 407.712 71.9616 407.712 75.581C407.712 79.2699 406.819 82.5876 405.033 85.5341C403.246 88.4574 400.555 90.7659 396.959 92.4595C393.363 94.1532 388.839 95 383.386 95H354.536ZM367.447 84.2116H381.333C386.02 84.2116 389.395 83.3184 391.46 81.532C393.548 79.7223 394.592 77.4022 394.592 74.5717C394.592 72.4605 394.07 70.558 393.026 68.8643C391.982 67.1475 390.497 65.8018 388.572 64.8274C386.646 63.8298 384.349 63.331 381.681 63.331H367.447V84.2116ZM367.447 54.0391H380.219C382.447 54.0391 384.454 53.633 386.24 52.821C388.027 51.9858 389.43 50.8142 390.451 49.3061C391.495 47.7749 392.017 45.9652 392.017 43.8771C392.017 41.1162 391.043 38.8426 389.094 37.0561C387.168 35.2696 384.303 34.3764 380.498 34.3764H367.447V54.0391Z" fill="white"/>
</svg>
