<svg width="22" height="22" viewBox="0 0 22 22" fill="none" xmlns="http://www.w3.org/2000/svg">
<path d="M8.09504 13.0353H14.8842M5.8112 3.00409C5.59417 3.00943 5.38785 3.09798 5.23629 3.25085C5.08473 3.40372 4.99993 3.60879 5 3.8223V18.1818C4.99993 18.3953 5.08473 18.6004 5.23629 18.7532C5.38785 18.9061 5.59417 18.9947 5.8112 19H17.168C17.3887 19 17.6003 18.9138 17.7563 18.7604C17.9123 18.6069 18 18.3988 18 18.1818V7.09103H14.672C14.455 7.08569 14.2486 6.99713 14.0971 6.84427C13.9455 6.6914 13.8607 6.48632 13.8608 6.27282V3L5.8112 3.00409ZM13.8234 3.00409L17.9792 7.09103L13.8234 3.00409ZM8.09504 10.5602H14.8842H8.09504ZM8.09504 15.5104H14.8842H8.09504Z" stroke="#72747F" stroke-linecap="round" stroke-linejoin="round"/>
</svg>
