<svg width="22" height="22" viewBox="0 0 22 22" fill="none" xmlns="http://www.w3.org/2000/svg">
<g clip-path="url(#clip0_25_12)">
<path d="M18.6239 4.11756C17.2214 3.48506 15.718 3.01756 14.146 2.75173C14.132 2.74904 14.1175 2.75077 14.1045 2.75668C14.0915 2.7626 14.0807 2.7724 14.0735 2.78473C13.881 3.12298 13.6665 3.56389 13.5162 3.91223C11.8489 3.66311 10.1538 3.66311 8.48645 3.91223C8.31901 3.52618 8.13019 3.14977 7.92087 2.78473C7.91377 2.77225 7.90304 2.76222 7.8901 2.756C7.87716 2.74978 7.86263 2.74765 7.84845 2.74989C6.27729 3.01573 4.77395 3.48323 3.37054 4.11664C3.35846 4.12171 3.34823 4.13034 3.3412 4.14139C0.488536 8.33514 -0.293381 12.4253 0.0907023 16.4641C0.0917711 16.474 0.0948415 16.4836 0.0997268 16.4923C0.104612 16.5009 0.11121 16.5085 0.119119 16.5146C1.78415 17.7268 3.64126 18.6502 5.6127 19.2462C5.62645 19.2505 5.64114 19.2504 5.65488 19.2462C5.66862 19.2419 5.68075 19.2336 5.6897 19.2224C6.11393 18.655 6.48986 18.0531 6.81354 17.423C6.81803 17.4144 6.82062 17.4049 6.82113 17.3952C6.82164 17.3855 6.82006 17.3758 6.81649 17.3667C6.81293 17.3577 6.80747 17.3495 6.80047 17.3428C6.79348 17.336 6.78512 17.3309 6.77595 17.3276C6.18379 17.1046 5.61003 16.8355 5.05995 16.5228C5.05007 16.5172 5.04174 16.5092 5.03571 16.4995C5.02969 16.4899 5.02615 16.4789 5.02542 16.4675C5.0247 16.4561 5.0268 16.4448 5.03155 16.4344C5.03629 16.4241 5.04353 16.4151 5.05262 16.4082C5.16812 16.323 5.28362 16.2341 5.39362 16.1451C5.40352 16.1371 5.41545 16.1321 5.42807 16.1304C5.4407 16.1288 5.45352 16.1307 5.46512 16.136C9.06487 17.753 12.9635 17.753 16.521 16.136C16.5327 16.1304 16.5456 16.1283 16.5584 16.1297C16.5712 16.1312 16.5834 16.1362 16.5935 16.1442C16.7035 16.2341 16.818 16.323 16.9345 16.4082C16.9436 16.4149 16.951 16.4238 16.9559 16.4341C16.9608 16.4443 16.9631 16.4556 16.9625 16.467C16.962 16.4783 16.9586 16.4894 16.9528 16.4991C16.9469 16.5089 16.9387 16.517 16.929 16.5228C16.3808 16.8381 15.8106 17.1049 15.212 17.3267C15.2028 17.3301 15.1945 17.3353 15.1875 17.3422C15.1805 17.349 15.175 17.3572 15.1715 17.3663C15.1679 17.3755 15.1663 17.3852 15.1668 17.395C15.1674 17.4047 15.17 17.4143 15.1745 17.423C15.5045 18.0527 15.8821 18.6522 16.2974 19.2215C16.306 19.2332 16.318 19.2419 16.3318 19.2465C16.3456 19.2511 16.3605 19.2513 16.3744 19.2471C18.3492 18.6528 20.2093 17.7289 21.8762 16.5146C21.8843 16.5089 21.8912 16.5015 21.8962 16.493C21.9013 16.4844 21.9045 16.4749 21.9055 16.4651C22.3639 11.7956 21.1374 7.73839 18.6523 4.14323C18.6462 4.13154 18.6361 4.12244 18.6239 4.11756ZM7.35162 14.0047C6.26812 14.0047 5.37437 13.0248 5.37437 11.8231C5.37437 10.6204 6.2507 9.64139 7.35162 9.64139C8.46079 9.64139 9.34629 10.6286 9.32887 11.8231C9.32887 13.0257 8.45254 14.0047 7.35162 14.0047ZM14.662 14.0047C13.5776 14.0047 12.6848 13.0248 12.6848 11.8231C12.6848 10.6204 13.5602 9.64139 14.662 9.64139C15.7712 9.64139 16.6567 10.6286 16.6393 11.8231C16.6393 13.0257 15.7721 14.0047 14.662 14.0047Z" fill="#72747F"/>
</g>
<defs>
<clipPath id="clip0_25_12">
<rect width="22" height="22" fill="white"/>
</clipPath>
</defs>
</svg>
