<svg width="22" height="22" viewBox="0 0 22 22" fill="none" xmlns="http://www.w3.org/2000/svg">
<path d="M19.9374 5.46349C19.28 5.74708 18.5646 5.95118 17.8277 6.03067C18.5928 5.57614 19.1657 4.85806 19.439 4.01114C18.7211 4.43823 17.9346 4.73771 17.1144 4.8963C16.7716 4.52983 16.357 4.23789 15.8965 4.03866C15.4359 3.83943 14.9392 3.73718 14.4374 3.73829C12.4072 3.73829 10.7744 5.38399 10.7744 7.40353C10.7744 7.68712 10.8087 7.97071 10.8646 8.24357C7.82456 8.08458 5.11323 6.63224 3.31069 4.4086C2.98225 4.96959 2.81014 5.60835 2.81226 6.25841C2.81226 7.53028 3.45893 8.65177 4.44507 9.31134C3.86392 9.28845 3.29639 9.12872 2.78862 8.84513V8.89024C2.78862 10.6713 4.04761 12.1473 5.72554 12.4867C5.41049 12.5686 5.08639 12.6104 4.76089 12.6113C4.52241 12.6113 4.29683 12.5877 4.06909 12.5555C4.53315 14.0078 5.88452 15.0627 7.4937 15.0971C6.23472 16.0832 4.65776 16.6633 2.94546 16.6633C2.63823 16.6633 2.35464 16.6526 2.0603 16.6182C3.68452 17.6602 5.61167 18.2617 7.68706 18.2617C14.4246 18.2617 18.1113 12.6801 18.1113 7.83536C18.1113 7.67638 18.1113 7.51739 18.1005 7.35841C18.8138 6.83634 19.439 6.18966 19.9374 5.46349Z" fill="#72747F"/>
</svg>
