<svg width="22" height="22" viewBox="0 0 22 22" fill="none" xmlns="http://www.w3.org/2000/svg">
<path d="M4.00771 6.6585C4.01894 6.54691 4.0039 6.43424 3.96378 6.32951C3.92367 6.22477 3.85961 6.13088 3.77671 6.05534L2.06437 3.97725V3.6665H7.37921L11.4877 12.7461L15.0994 3.6665H20.1667V3.97725L18.7028 5.38984C18.6408 5.43773 18.5929 5.50157 18.5643 5.57455C18.5357 5.64752 18.5275 5.72689 18.5405 5.80417V16.1937C18.5275 16.271 18.5357 16.3503 18.5643 16.4233C18.5929 16.4963 18.6408 16.5601 18.7028 16.608L20.1328 18.0215V18.3332H12.9425V18.0224L14.4238 16.5741C14.5695 16.4274 14.5695 16.3843 14.5695 16.1607V7.76217L10.4519 18.2983H9.89637L5.10221 7.76217V14.8242C5.06279 15.1203 5.16087 15.42 5.36804 15.6345L7.29396 17.9885V18.2983H1.83337V17.9885L3.75837 15.6345C3.86023 15.5282 3.93582 15.3996 3.97911 15.2589C4.0224 15.1182 4.0322 14.9693 4.00771 14.8242V6.6585Z" fill="#72747F"/>
</svg>
