<svg width="34" height="38" viewBox="0 0 34 38" fill="none" xmlns="http://www.w3.org/2000/svg">
<path d="M1.43457 11.552V26.448C1.43457 27.4056 1.93617 28.272 2.77217 28.7584L15.677 36.2064C16.4978 36.6776 17.5162 36.6776 18.337 36.2064L31.2418 28.7584C32.0626 28.2872 32.5794 27.4056 32.5794 26.448V11.552C32.5794 10.5944 32.0778 9.72799 31.2418 9.24159L18.337 1.79359C17.5162 1.32239 16.4978 1.32239 15.677 1.79359L2.77217 9.24159C1.95137 9.71278 1.44977 10.5944 1.44977 11.552H1.43457Z" fill="#213147"/>
<path d="M19.8119 21.8881L17.9727 26.9345C17.9271 27.0713 17.9271 27.2233 17.9727 27.3753L21.1343 36.0545L24.7975 33.9417L20.4047 21.8881C20.2983 21.6145 19.9183 21.6145 19.8119 21.8881Z" fill="#12AAFF"/>
<path d="M23.5053 13.4064C23.3989 13.1328 23.0189 13.1328 22.9125 13.4064L21.0733 18.4528C21.0277 18.5896 21.0277 18.7416 21.0733 18.8936L26.2565 33.1056L29.9197 30.9928L23.5053 13.4216V13.4064Z" fill="#12AAFF"/>
<path d="M16.9998 2.356C17.091 2.356 17.1822 2.3864 17.2582 2.432L31.2118 10.488C31.379 10.5792 31.4702 10.7616 31.4702 10.944V27.056C31.4702 27.2384 31.3638 27.4208 31.2118 27.512L17.2582 35.568C17.1822 35.6136 17.091 35.644 16.9998 35.644C16.9086 35.644 16.8174 35.6136 16.7414 35.568L2.7878 27.512C2.6206 27.4208 2.5294 27.2384 2.5294 27.056V10.9288C2.5294 10.7464 2.6358 10.564 2.7878 10.4728L16.7414 2.4168C16.8174 2.3712 16.9086 2.3408 16.9998 2.3408V2.356ZM16.9998 0C16.4982 0 16.0118 0.1216 15.5558 0.38L1.6022 8.436C0.705403 8.9528 0.158203 9.8952 0.158203 10.9288V27.0408C0.158203 28.0744 0.705403 29.0168 1.6022 29.5336L15.5558 37.5896C15.9966 37.848 16.4982 37.9696 16.9998 37.9696C17.5014 37.9696 17.9878 37.848 18.4438 37.5896L32.3974 29.5336C33.2942 29.0168 33.8414 28.0744 33.8414 27.0408V10.9288C33.8414 9.8952 33.2942 8.9528 32.3974 8.436L18.4286 0.38C17.9878 0.1216 17.4862 0 16.9846 0H16.9998Z" fill="#9DCCED"/>
<path d="M7.75781 33.1209L9.04981 29.5945L11.6338 31.7377L9.21701 33.9569L7.75781 33.1209Z" fill="#213147"/>
<path d="M15.8139 9.78888H12.2723C12.0139 9.78888 11.7707 9.95608 11.6795 10.1993L4.09473 30.9929L7.75793 33.1057L16.1179 10.1993C16.1939 9.98648 16.0419 9.77368 15.8291 9.77368L15.8139 9.78888Z" fill="white"/>
<path d="M22.0152 9.78888H18.4736C18.2152 9.78888 17.972 9.95608 17.8808 10.1993L9.2168 33.9417L12.88 36.0545L22.304 10.1993C22.38 9.98648 22.228 9.77368 22.0152 9.77368V9.78888Z" fill="white"/>
</svg>
