<svg width="37" height="38" viewBox="0 0 37 38" fill="none" xmlns="http://www.w3.org/2000/svg">
<path fill-rule="evenodd" clip-rule="evenodd" d="M18.5 0C28.718 0 37 8.50585 37 19C37 29.4942 28.718 38 18.5 38C8.28201 38 0 29.4942 0 19C0 8.50585 8.28201 0 18.5 0Z" fill="#F0B90B"/>
<path d="M10.1678 19.0001L10.1811 24.0241L14.3377 26.5361V29.4775L7.74855 25.5085V17.5309L10.1678 19.0001ZM10.1678 13.976V16.9037L7.74707 15.433V12.5053L10.1678 11.0347L12.6004 12.5053L10.1678 13.976ZM16.0736 12.5053L18.4943 11.0347L20.9268 12.5053L18.4943 13.976L16.0736 12.5053Z" fill="white"/>
<path d="M11.917 22.9827V20.0414L14.3377 21.5121V24.4397L11.917 22.9827ZM16.0736 27.5896L18.4943 29.0603L20.9268 27.5896V30.5173L18.4943 31.988L16.0736 30.5173V27.5896ZM24.3986 12.5053L26.8193 11.0347L29.2518 12.5053V15.433L26.8193 16.9037V13.976L24.3986 12.5053ZM26.8193 24.0241L26.8326 19.0001L29.2533 17.5294V25.5069L22.6642 29.4759V26.5346L26.8193 24.0241Z" fill="white"/>
<path d="M25.0828 22.9826L22.6621 24.4396V21.5119L25.0828 20.0413V22.9826Z" fill="white"/>
<path d="M25.0834 15.0174L25.0968 17.9588L20.9283 20.4708V25.507L18.5076 26.964L16.0869 25.507V20.4708L11.9185 17.9588V15.0174L14.3496 13.5467L18.4928 16.0709L22.6612 13.5467L25.0938 15.0174H25.0834ZM11.917 9.9949L18.4943 6.01221L25.0834 9.9949L22.6627 11.4656L18.4943 8.94137L14.3377 11.4656L11.917 9.9949Z" fill="white"/>
</svg>
