<svg width="38" height="38" viewBox="0 0 38 38" fill="none" xmlns="http://www.w3.org/2000/svg">
<path d="M19 38C29.4934 38 38 29.4934 38 19C38 8.50659 29.4934 0 19 0C8.50659 0 0 8.50659 0 19C0 29.4934 8.50659 38 19 38Z" fill="#FF0420"/>
<path d="M13.4596 24.0464C12.3272 24.0464 11.4 23.7804 10.678 23.2484C9.96365 22.7088 9.60645 21.9336 9.60645 20.938C9.60645 20.7252 9.62925 20.4744 9.67485 20.1704C9.79645 19.4864 9.97124 18.6656 10.1992 17.7004C10.8452 15.086 12.5172 13.7788 15.2076 13.7788C15.9372 13.7788 16.5984 13.9004 17.176 14.1512C17.7536 14.3868 18.2096 14.7516 18.544 15.238C18.8784 15.7168 19.0456 16.2868 19.0456 16.948C19.0456 17.1456 19.0228 17.3964 18.9772 17.7004C18.8328 18.544 18.6656 19.3724 18.4604 20.1704C18.126 21.47 17.556 22.4504 16.7352 23.0964C15.922 23.7348 14.8276 24.0464 13.4596 24.0464ZM13.6648 21.9944C14.1968 21.9944 14.6452 21.8348 15.0176 21.5232C15.3976 21.2116 15.6712 20.7328 15.8308 20.0792C16.0512 19.1824 16.2184 18.4072 16.3324 17.7384C16.3704 17.5408 16.3932 17.3356 16.3932 17.1228C16.3932 16.2564 15.9448 15.8232 15.0404 15.8232C14.5084 15.8232 14.0524 15.9828 13.6724 16.2944C13.3 16.606 13.034 17.0848 12.8744 17.7384C12.6996 18.3768 12.5324 19.152 12.3576 20.0792C12.3196 20.2692 12.2968 20.4668 12.2968 20.6796C12.2892 21.5612 12.7528 21.9944 13.6648 21.9944Z" fill="white"/>
<path d="M19.7066 23.9095C19.6002 23.9095 19.5242 23.8791 19.4634 23.8107C19.4178 23.7347 19.4026 23.6511 19.4178 23.5523L21.3862 14.2803C21.4014 14.1739 21.4546 14.0903 21.5458 14.0219C21.6294 13.9535 21.7206 13.9231 21.8194 13.9231H25.6118C26.6682 13.9231 27.5118 14.1435 28.1502 14.5767C28.7962 15.0175 29.123 15.6483 29.123 16.4767C29.123 16.7123 29.0926 16.9631 29.0394 17.2215C28.8038 18.3159 28.325 19.1215 27.5954 19.6459C26.881 20.1703 25.9006 20.4287 24.6542 20.4287H22.7314L22.0778 23.5523C22.055 23.6587 22.0094 23.7423 21.9182 23.8107C21.8346 23.8791 21.7434 23.9095 21.6446 23.9095H19.7066ZM24.753 18.4603C25.1558 18.4603 25.4978 18.3539 25.7942 18.1335C26.0982 17.9131 26.2958 17.6015 26.3946 17.1911C26.425 17.0315 26.4402 16.8871 26.4402 16.7655C26.4402 16.4919 26.3566 16.2791 26.197 16.1347C26.0374 15.9827 25.7562 15.9067 25.3686 15.9067H23.6586L23.119 18.4603H24.753Z" fill="white"/>
</svg>
