<svg width="38" height="38" viewBox="0 0 38 38" fill="none" xmlns="http://www.w3.org/2000/svg">
<path d="M19 38C29.4934 38 38 29.4934 38 19C38 8.50659 29.4934 0 19 0C8.50659 0 0 8.50659 0 19C0 29.4934 8.50659 38 19 38Z" fill="#8247E5"/>
<path d="M24.5946 15.2849C24.1949 15.058 23.6811 15.058 23.2244 15.2849L20.0273 17.1565L17.8578 18.3476L14.7178 20.2192C14.3181 20.4461 13.8043 20.4461 13.3476 20.2192L10.8927 18.7446C10.493 18.5177 10.2076 18.064 10.2076 17.5536V14.7177C10.2076 14.264 10.4359 13.8103 10.8927 13.5267L13.3476 12.1088C13.7472 11.8819 14.261 11.8819 14.7178 12.1088L17.1727 13.5834C17.5723 13.8103 17.8578 14.264 17.8578 14.7745V16.6461L20.0273 15.3983V13.47C20.0273 13.0162 19.7989 12.5625 19.3422 12.2789L14.7749 9.61326C14.3752 9.3864 13.8614 9.3864 13.4047 9.61326L8.72318 12.3357C8.26645 12.5625 8.03809 13.0162 8.03809 13.47V18.8013C8.03809 19.2551 8.26645 19.7088 8.72318 19.9924L13.3476 22.658C13.7472 22.8849 14.261 22.8849 14.7178 22.658L17.8578 20.8431L20.0273 19.5954L23.1673 17.7804C23.5669 17.5536 24.0808 17.5536 24.5375 17.7804L26.9924 19.1983C27.3921 19.4252 27.6775 19.8789 27.6775 20.3894V23.2252C27.6775 23.6789 27.4491 24.1327 26.9924 24.4163L24.5946 25.8342C24.1949 26.061 23.6811 26.061 23.2244 25.8342L20.7695 24.4163C20.3698 24.1894 20.0844 23.7357 20.0844 23.2252V21.4103L17.9149 22.658V24.5297C17.9149 24.9834 18.1433 25.4371 18.6 25.7207L23.2244 28.3864C23.624 28.6133 24.1378 28.6133 24.5946 28.3864L29.219 25.7207C29.6186 25.4939 29.9041 25.0401 29.9041 24.5297V19.1416C29.9041 18.6879 29.6757 18.2342 29.219 17.9506L24.5946 15.2849Z" fill="white"/>
</svg>
